<svg xmlns="http://www.w3.org/2000/svg" xmlns:xlink="http://www.w3.org/1999/xlink" viewBox="0 0 104.26 101.84"><defs><style>.cls-1{fill:url(#linear-gradient);}.cls-2,.cls-3{fill:none;stroke-miterlimit:10;stroke-width:6px;}.cls-2{stroke:url(#linear-gradient-2);}.cls-3{stroke:url(#linear-gradient-3);}.cls-4{fill:url(#linear-gradient-4);}.cls-5{fill:url(#linear-gradient-5);}.cls-6{fill:url(#linear-gradient-6);}.cls-7{fill:url(#linear-gradient-7);}.cls-8{fill:#fff;}</style><linearGradient id="linear-gradient" x1="81.95" y1="90.68" x2="104.26" y2="90.68" gradientUnits="userSpaceOnUse"><stop offset="0" stop-color="#b5767b"/><stop offset="1" stop-color="#d82b28"/></linearGradient><linearGradient id="linear-gradient-2" x1="0" y1="38.91" x2="77.79" y2="38.91" xlink:href="#linear-gradient"/><linearGradient id="linear-gradient-3" x1="10" y1="48.91" x2="87.79" y2="48.91" xlink:href="#linear-gradient"/><linearGradient id="linear-gradient-4" x1="76.36" y1="349.36" x2="71.07" y2="327.53" gradientTransform="matrix(1, 0, 0, -1, 0, 378.98)" xlink:href="#linear-gradient"/><linearGradient id="linear-gradient-5" x1="32.25" y1="97.91" x2="82.57" y2="53.03" xlink:href="#linear-gradient"/><linearGradient id="linear-gradient-6" x1="55.94" y1="77.07" x2="82.65" y2="53.24" xlink:href="#linear-gradient"/><linearGradient id="linear-gradient-7" x1="80.51" y1="362.73" x2="32.72" y2="279.97" gradientTransform="matrix(1, 0, 0, -1, 0, 378.98)" xlink:href="#linear-gradient"/></defs><g id="Layer_2" data-name="Layer 2"><g id="Layer_1-2" data-name="Layer 1"><rect class="cls-1" x="81.95" y="79.53" width="22.3" height="22.3" rx="4.95"/><path class="cls-2" d="M13.15,74.85A12,12,0,0,1,3,63V15A12,12,0,0,1,15,3H63A12,12,0,0,1,74.83,13.15"/><path class="cls-3" d="M23.15,84.85A12,12,0,0,1,13,73V25A12,12,0,0,1,25,13H73A12,12,0,0,1,84.83,23.15"/><circle class="cls-4" cx="72.55" cy="45.33" r="5.89"/><path class="cls-5" d="M95,67V76H85a6.5,6.5,0,0,0-6.51,6.51V95H35A12,12,0,0,1,23,83V77.13l3-3.84L46.6,46.9a1.73,1.73,0,0,1,1.27-.67h.25a1.47,1.47,0,0,1,.64.18,1.91,1.91,0,0,1,.27.16,1.5,1.5,0,0,1,.24.2L72.7,70.2a1.3,1.3,0,0,0,.23.18s0,0,0,0a1.76,1.76,0,0,0,2.22-.23l.14-.15,8.74-11.2a1.75,1.75,0,0,1,2.09-.52,1.73,1.73,0,0,1,.3.16.33.33,0,0,1,.1.06l.15.14,0,0L92,64Z"/><path class="cls-6" d="M95,67v9H85a6.5,6.5,0,0,0-6.51,6.51V95H72l0-.07-1.47-3L47.83,46.26h.32a1.66,1.66,0,0,1,.61.15,1.91,1.91,0,0,1,.27.16,1.5,1.5,0,0,1,.24.2L72.7,70.2l.15.13.08,0s0,0,0,0A1.75,1.75,0,0,0,75.34,70l8.74-11.2a1.07,1.07,0,0,1,.14-.16,1.77,1.77,0,0,1,1.92-.39,1.73,1.73,0,0,1,.3.16,1.69,1.69,0,0,1,.25.2l0,0L92,64Z"/><path class="cls-7" d="M83,20H35A15,15,0,0,0,20,35V83A15,15,0,0,0,35,98H78.44V92H35a9,9,0,0,1-9-9V35a9,9,0,0,1,9-9H83a9,9,0,0,1,9,9V76h6V35A15,15,0,0,0,83,20Z"/><path class="cls-8" d="M98.8,89.38H94.41V85a.83.83,0,0,0-.83-.83h-.94a.83.83,0,0,0-.83.83v4.38H87.42a.84.84,0,0,0-.83.83v.92a.84.84,0,0,0,.83.84h4.39v4.38a.82.82,0,0,0,.82.82h1a.81.81,0,0,0,.83-.81h0V92H98.8a.84.84,0,0,0,.83-.84v-.94A.84.84,0,0,0,98.8,89.38Z"/></g></g></svg>