<svg id="_72abf1fc-af5c-4a12-adab-83afeedac95e" data-name="72abf1fc-af5c-4a12-adab-83afeedac95e" xmlns="http://www.w3.org/2000/svg" xmlns:xlink="http://www.w3.org/1999/xlink" viewBox="0 0 728 796.38"><defs><style>.cls-1{fill:url(#linear-gradient);}.cls-2{fill:#fcfcfc;}.cls-3{fill:#e0e0e0;}.cls-4,.cls-6{fill:#5664d2;}.cls-4,.cls-5{isolation:isolate;}.cls-4,.cls-5,.cls-9{opacity:0.5;}.cls-5{fill:#69f0ae;}.cls-7{fill:url(#linear-gradient-2);}.cls-8{fill:#f5f5f5;}.cls-10{fill:url(#linear-gradient-3);}.cls-11{fill:#3ad29f;}.cls-12{fill:#fff;}.cls-13{fill:url(#linear-gradient-4);}.cls-14{fill:url(#linear-gradient-5);}</style><linearGradient id="linear-gradient" x1="506.01" y1="38.08" x2="506.01" y2="744.08" gradientTransform="matrix(1, 0, 0, -1, -236, 744.08)" gradientUnits="userSpaceOnUse"><stop offset="0" stop-color="#b3b3b3" stop-opacity="0.25"/><stop offset="0.54" stop-color="#b3b3b3" stop-opacity="0.1"/><stop offset="1" stop-color="#b3b3b3" stop-opacity="0.05"/></linearGradient><linearGradient id="linear-gradient-2" x1="49.45" y1="699.39" x2="49.45" y2="792.39" gradientTransform="matrix(1, 0, 0, -1, 0, 795.89)" xlink:href="#linear-gradient"/><linearGradient id="linear-gradient-3" x1="627.87" y1="-0.49" x2="627.87" y2="199.77" gradientTransform="matrix(1, 0, 0, -1, 0, 795.89)" gradientUnits="userSpaceOnUse"><stop offset="0" stop-color="gray" stop-opacity="0.25"/><stop offset="0.54" stop-color="gray" stop-opacity="0.12"/><stop offset="1" stop-color="gray" stop-opacity="0.1"/></linearGradient><linearGradient id="linear-gradient-4" x1="611.01" y1="-6.92" x2="611.01" y2="699.08" xlink:href="#linear-gradient"/><linearGradient id="linear-gradient-5" x1="154.46" y1="654.39" x2="154.46" y2="747.39" gradientTransform="matrix(1, 0, 0, -1, 0, 795.89)" xlink:href="#linear-gradient"/></defs><path class="cls-1" d="M414,643c0-51.76,51.11-99.48,102.87-99.48,7.93,0,15.62-2,23-.16.1-2.26.16-15.54.16-17.82V0H92L0,94.5V706H423C413.9,691.56,414,661.34,414,643Z" transform="translate(0 0)"/><path class="cls-2" d="M406,653A117,117,0,0,1,523,536c3.53,0,7,.17,10.48.47V265.19H8.48V694H413.39A116.87,116.87,0,0,1,406,653Z" transform="translate(0 0)"/><polygon class="cls-2" points="533.09 269.19 6.91 269.19 6.91 94.5 92 5.5 533.09 5.5 533.09 269.19"/><rect class="cls-3" x="357.59" y="58.59" width="142.73" height="10.89"/><rect class="cls-3" x="357.59" y="98.59" width="142.73" height="10.89"/><rect class="cls-3" x="357.59" y="138.59" width="142.73" height="10.89"/><rect class="cls-4" x="357.59" y="178.59" width="142.73" height="10.89"/><rect class="cls-3" x="357.59" y="218.59" width="142.73" height="10.89"/><rect class="cls-3" x="357.59" y="258.59" width="142.73" height="10.89"/><rect class="cls-4" x="84.72" y="343.59" width="142.73" height="10.89"/><rect class="cls-3" x="84.72" y="387.13" width="142.73" height="10.89"/><rect class="cls-5" x="84.72" y="365.36" width="372.56" height="10.89"/><rect class="cls-4" x="84.72" y="448.82" width="142.73" height="10.89"/><rect class="cls-3" x="84.72" y="492.37" width="142.73" height="10.89"/><rect class="cls-3" x="84.72" y="470.59" width="372.56" height="10.89"/><rect class="cls-4" x="84.72" y="554.06" width="142.73" height="10.89"/><rect class="cls-3" x="84.72" y="597.6" width="142.73" height="10.89"/><rect class="cls-3" x="84.72" y="575.83" width="305.41" height="10.89"/><polygon class="cls-6" points="310 281 50 281 50 54 59 43 79.75 43 310 43 310 281"/><polygon class="cls-7" points="4.91 96.5 94 96.5 94 3.5 4.91 96.5"/><polygon class="cls-8" points="6.91 94.5 92 94.5 92 5.5 6.91 94.5"/><g class="cls-9"><circle class="cls-10" cx="627.87" cy="696.25" r="100.13"/></g><circle class="cls-11" cx="627.87" cy="696.25" r="93.72"/><rect class="cls-12" x="591.51" y="688.83" width="19.2" height="48" transform="translate(-327.98 633.83) rotate(-45)"/><rect class="cls-12" x="590.02" y="686.65" width="95.57" height="19.2" transform="translate(-305.51 654.92) rotate(-45)"/><path class="cls-13" d="M519,688c0-51.76,51.11-99.48,102.87-99.48,7.93,0,15.62-2,23-.16.1-2.26.16-15.54.16-17.82V45H197l-92,94.5V751H528C518.9,736.56,519,706.34,519,688Z" transform="translate(0 0)"/><path class="cls-12" d="M511,698A117,117,0,0,1,628,581h0c3.53,0,7,.17,10.48.47V310.19h-525V739H518.39A116.87,116.87,0,0,1,511,698Z" transform="translate(0 0)"/><polygon class="cls-12" points="638.09 314.19 111.91 314.19 111.91 139.5 197 50.5 638.09 50.5 638.09 314.19"/><rect class="cls-3" x="462.59" y="103.59" width="142.73" height="10.89"/><rect class="cls-3" x="462.59" y="143.59" width="142.73" height="10.89"/><rect class="cls-3" x="462.59" y="183.59" width="142.73" height="10.89"/><rect class="cls-4" x="462.59" y="223.59" width="142.73" height="10.89"/><rect class="cls-3" x="462.59" y="263.59" width="142.73" height="10.89"/><rect class="cls-3" x="462.59" y="303.59" width="142.73" height="10.89"/><rect class="cls-4" x="189.72" y="388.59" width="142.73" height="10.89"/><rect class="cls-3" x="189.72" y="432.13" width="142.73" height="10.89"/><rect class="cls-5" x="189.72" y="410.36" width="372.56" height="10.89"/><rect class="cls-4" x="189.72" y="493.82" width="142.73" height="10.89"/><rect class="cls-3" x="189.72" y="537.37" width="142.73" height="10.89"/><rect class="cls-3" x="189.72" y="515.59" width="372.56" height="10.89"/><rect class="cls-4" x="189.72" y="599.06" width="142.73" height="10.89"/><rect class="cls-3" x="189.72" y="642.6" width="142.73" height="10.89"/><rect class="cls-3" x="189.72" y="620.83" width="305.41" height="10.89"/><polygon class="cls-6" points="415 326 155 326 155 99 164 88 184.75 88 415 88 415 326"/><polygon class="cls-14" points="109.91 141.5 199 141.5 199 48.5 109.91 141.5"/><polygon class="cls-2" points="111.91 139.5 197 139.5 197 50.5 111.91 139.5"/><rect class="cls-12" x="232.86" y="190.59" width="19.2" height="48" transform="translate(-80.72 234.29) rotate(-45)"/><rect class="cls-12" x="231.74" y="188.17" width="95.57" height="19.2" transform="translate(-57.97 255.58) rotate(-45)"/></svg>