<svg xmlns="http://www.w3.org/2000/svg" xmlns:xlink="http://www.w3.org/1999/xlink" viewBox="0 0 99.74 122.54"><defs><style>.cls-1{fill:#ab1515;}.cls-1,.cls-3,.cls-5,.cls-7{fill-rule:evenodd;}.cls-2{fill:#564500;}.cls-3,.cls-4{fill:#f9d806;}.cls-5{fill:#ffe268;}.cls-6{fill:#037536;}.cls-7{fill:#fff;}</style><symbol id="New_Symbol_1" data-name="New Symbol 1" viewBox="0 0 99.74 122.54"><g id="g1603"><g id="path10"><path class="cls-1" d="M78.69,107.49c-1.65,2.8-4.53.2-2.61-1.72a2.47,2.47,0,0,1,2.71-.52c-3.52-1.58-5-5.81-5.08-9.82-.15-6.38,3.77-12.45,6.78-18.32.85-1.65.53-2.33.06-2.61s-.82.38-1,.79c-1.44-2.42,1.29-4.6,3.5-2-1.72-4.18-1.37-5.6-1.26-7.08a3.16,3.16,0,0,0,3.08,2.15C81.58,64.27,83.45,58,83.71,59c.4,1.64,2.2,3.63,4,3.82-.86-1.39-3.32-6.12-1.34-9.11,1,1.66,1.5,2.33,3.42,2.64,2.11-5-.61-11-6.27-10.85-5.26.14-3.45,5.19,0,4.24-1.36,3.79-4.41,2.28-5.67,1.34,0,2.52,1,3.18,2.12,3.44-2.62,1.53-4.46-.34-5-2-.76-2.52,1-6.17,3.79-8.18a2.45,2.45,0,0,1-1.17.3,1.94,1.94,0,0,1-2.15-1.85c0-.81.54-1.8,1.47-1.78,1.3,0,1.25,1.05,1,1.33,1.58.6,3.21-5.16-3.37-5a13.9,13.9,0,0,0-6.81,2.69,6.8,6.8,0,0,0-2.55,3.37c-.4,1.83.82,3.82,2.71,2-1,.43-1.74-.06-1.71-.94A1.77,1.77,0,0,1,68,42.69c3,0,2.31,5-1.65,5s-4.7-3.16-3.74-6.12c-1.52.76-1.77,3-1,4.34-1.38-.14-4.09-4-.62-5.93a2.6,2.6,0,0,1-1.31-2,46.41,46.41,0,0,1-9.79,1,45.5,45.5,0,0,1-9.77-1,2.69,2.69,0,0,1-1.32,2c3.47,2,.76,5.78-.62,5.93.76-1.35.51-3.59-1-4.35,1,3,.11,6.16-3.74,6.12s-4.67-4.95-1.65-5a1.76,1.76,0,0,1,1.83,1.82c0,.88-.68,1.37-1.71.94,1.89,1.83,3.11-.15,2.71-2a6.8,6.8,0,0,0-2.55-3.37,13.9,13.9,0,0,0-6.81-2.69c-6.58-.18-4.95,5.58-3.37,5-.26-.28-.3-1.3,1-1.33.93,0,1.47,1,1.47,1.78a1.93,1.93,0,0,1-2.15,1.85,2.45,2.45,0,0,1-1.17-.3c2.82,2,4.56,5.66,3.79,8.18-.51,1.67-2.35,3.53-5,2C21,54.28,22,53.62,22,51.1c-1.26.94-4.31,2.45-5.67-1.34,3.47,1,5.28-4.1,0-4.24-5.65-.14-8.38,5.82-6.27,10.85,1.92-.31,2.4-1,3.42-2.64,2,3-.48,7.72-1.33,9.11,1.75-.19,3.54-2.18,3.94-3.81.27-1.05,2.13,5.22-1.2,9.3a3.16,3.16,0,0,0,3.08-2.15c.11,1.48.46,2.9-1.26,7.08,2.21-2.59,4.94-.41,3.5,2-.14-.4-.56-1-.95-.79s-.8,1,.05,2.61c3,5.87,6.93,11.94,6.78,18.32-.09,4-1.56,8.24-5.08,9.82a2.47,2.47,0,0,1,2.71.52c1.92,1.92-1,4.52-2.61,1.73-1.29,3.81,1.39,6.61,5.63,6.43l2.87-.12a4.09,4.09,0,0,1,4.05-3c4.23,0,6.95,2.9,11.46,2.61a1,1,0,0,1,.39.08c-.26-.64,1-.51,1.13-.44a1.33,1.33,0,0,1,.61.53v-.22a13.59,13.59,0,0,0,5.68,0v.17a1.27,1.27,0,0,1,.56-.46c.18-.07,1.4-.2,1.14.44a1.18,1.18,0,0,1,.43-.1c4.51.29,7.24-2.61,11.46-2.61a4.11,4.11,0,0,1,4.07,3l2.5.11c4.24.17,6.93-2.62,5.63-6.44Z"/></g><g id="path12"><path class="cls-1" d="M33.09,15.8A6.52,6.52,0,0,1,37,12.72c2.37-.76,7.48-.3,10.21-.45,0-.14,0,.38,0-.37a2.4,2.4,0,0,1,2.21-2.16,3.06,3.06,0,0,1,2.68,2.16,2.9,2.9,0,0,1,0,.35l3.42,0h.07c1.9.09,5.13-.06,6.67.43a6.45,6.45,0,0,1,4,3.19,1.17,1.17,0,0,1,.26,0c6.83-1,10.16,6.92,5.73,11.5C70.68,29,67.89,30,65,31.26a.62.62,0,0,1,0,.27.44.44,0,0,1-.59.31h0a3.15,3.15,0,0,0-.8,1.36c-.35,1.09-.63,2.46-.35,2.62l-.06,0a.65.65,0,0,1,.24.55A.62.62,0,0,1,63,37,40.59,40.59,0,0,1,49.7,39a40.59,40.59,0,0,1-13.32-2,.64.64,0,0,1-.36-.65.67.67,0,0,1,.25-.55l-.06,0c.27-.16-.14-1.6-.49-2.69A3,3,0,0,0,35,31.85a.43.43,0,0,1-.55-.32.7.7,0,0,1,0-.32C31.56,30,28.83,29,27.27,27.37c-4.44-4.58-1.1-12.48,5.72-11.5h.06a.25.25,0,0,1,0-.07Z"/><path class="cls-2" d="M49.7,39.09a40.68,40.68,0,0,1-13.35-2,.72.72,0,0,1-.42-.74.73.73,0,0,1,.18-.53.1.1,0,0,1,0-.08c.06,0,.2-.32-.52-2.58A3.09,3.09,0,0,0,35,32a.56.56,0,0,1-.36-.06.53.53,0,0,1-.26-.35.7.7,0,0,1,0-.29L33.59,31c-2.56-1.05-5-2-6.39-3.51a7,7,0,0,1-1.27-8.17A6.63,6.63,0,0,1,33,15.78h0v0A6.58,6.58,0,0,1,37,12.63c1.6-.51,4.43-.47,6.92-.44,1.21,0,2.35,0,3.25,0v0a1.71,1.71,0,0,0,0-.26,2.48,2.48,0,0,1,2.3-2.26,3.17,3.17,0,0,1,2.78,2.25,1.43,1.43,0,0,0,0,.24v0l3.4,0c.53,0,1.16,0,1.83,0a20.29,20.29,0,0,1,4.87.4,6.61,6.61,0,0,1,4,3.17h0l.18,0a6.62,6.62,0,0,1,7.07,3.49,7,7,0,0,1-1.27,8.17C70.91,28.91,68.5,29.9,65.94,31l-.89.37a.58.58,0,0,1,0,.23.61.61,0,0,1-.28.36.55.55,0,0,1-.38,0,2.88,2.88,0,0,0-.74,1.28c-.44,1.36-.56,2.42-.39,2.51a.1.1,0,0,1,0,.07.83.83,0,0,1,.19.55.73.73,0,0,1-.42.73A40.68,40.68,0,0,1,49.7,39.09ZM36.36,35.77a.11.11,0,0,1,0,.11.64.64,0,0,0,.08,1,40.32,40.32,0,0,0,13.29,2,40.25,40.25,0,0,0,13.28-2,.54.54,0,0,0,.3-.55.54.54,0,0,0-.2-.48.1.1,0,0,1,0-.11,6.7,6.7,0,0,1,.41-2.6,3.15,3.15,0,0,1,.83-1.4.1.1,0,0,1,.09,0,.32.32,0,0,0,.29,0,.36.36,0,0,0,.19-.24.59.59,0,0,0,0-.23.1.1,0,0,1,.06-.1l1-.39c2.54-1,4.93-2,6.33-3.47a6.83,6.83,0,0,0,1.23-7.95A6.44,6.44,0,0,0,66.55,16h0a.28.28,0,0,0-.14,0l-.1,0a.09.09,0,0,1-.1-.05,6.43,6.43,0,0,0-3.91-3.14,20.28,20.28,0,0,0-4.81-.39c-.67,0-1.31,0-1.84,0h-.06l-3.42,0a.11.11,0,0,1-.09-.08s0-.07,0-.1a1.83,1.83,0,0,1,0-.26,3,3,0,0,0-2.59-2.07,2.31,2.31,0,0,0-2.11,2.07c0,.43,0,.51-.12.51a.12.12,0,0,1-.09-.05c-.9.05-2,0-3.25,0-2.48,0-5.29-.07-6.86.42a6.46,6.46,0,0,0-3.84,3h0v0l0,0A.07.07,0,0,1,33,16h0a6.43,6.43,0,0,0-6.89,3.39,6.83,6.83,0,0,0,1.23,8c1.4,1.44,3.79,2.43,6.33,3.47l.83.34a.09.09,0,0,1,0,.11.49.49,0,0,0,0,.27.4.4,0,0,0,.17.24.36.36,0,0,0,.27,0,.08.08,0,0,1,.09,0,3,3,0,0,1,.73,1.32C36.38,34.87,36.45,35.51,36.36,35.77Z"/></g><g id="path3867"><path class="cls-3" d="M49.75,38.91a40.61,40.61,0,0,1-13.32-2,.65.65,0,0,1-.36-.65.63.63,0,0,1,.36-.61,40.61,40.61,0,0,1,13.32-2,40.57,40.57,0,0,1,13.32,2,.62.62,0,0,1,.36.61.65.65,0,0,1-.36.65A40.57,40.57,0,0,1,49.75,38.91Z"/><path class="cls-2" d="M49.75,39h0A40.68,40.68,0,0,1,36.4,37a.72.72,0,0,1-.42-.74.7.7,0,0,1,.42-.7,40.68,40.68,0,0,1,13.35-2,40.68,40.68,0,0,1,13.35,2,.69.69,0,0,1,.42.7.72.72,0,0,1-.42.74A40.68,40.68,0,0,1,49.75,39Zm0-5.25a40.56,40.56,0,0,0-13.28,2,.5.5,0,0,0-.3.52.52.52,0,0,0,.3.56,40.47,40.47,0,0,0,13.28,2,40.58,40.58,0,0,0,13.29-2,.65.65,0,0,0,0-1.08A40.58,40.58,0,0,0,49.75,33.76Z"/></g><g id="_135560784" data-name=" 135560784"><g id="_38996512" data-name=" 38996512"><ellipse class="cls-4" cx="49.71" cy="11.95" rx="2.56" ry="2.61"/><path class="cls-2" d="M49.71,14.65A2.71,2.71,0,1,1,52.37,12,2.69,2.69,0,0,1,49.71,14.65Zm0-5.22A2.52,2.52,0,1,0,52.18,12,2.5,2.5,0,0,0,49.71,9.43Z"/></g><g id="_135740768" data-name=" 135740768"><path class="cls-3" d="M32.84,16.28c-3.05.35-4.64,3.52-4.29,6.5.52,4.45,5.36,6.12,8.86,7.64l-2.7.84c-3-1.24-5.82-2.27-7.42-3.93-4.43-4.59-1.1-12.48,5.73-11.5Z"/><path class="cls-2" d="M34.71,31.35h0l-1.06-.44c-2.55-1.05-5-2-6.39-3.52A7,7,0,0,1,26,19.23,6.63,6.63,0,0,1,33,15.74a.1.1,0,0,1,.07,0,.11.11,0,0,1,0,.08l-.18.46a.08.08,0,0,1-.07.05,4.36,4.36,0,0,0-3,1.69,6.52,6.52,0,0,0-1.23,4.71c.47,4,4.6,5.78,7.92,7.19l.88.37a.1.1,0,0,1,0,.18l-2.69.84Zm-2.8-15.51a6.35,6.35,0,0,0-5.79,3.47,6.84,6.84,0,0,0,1.24,8c1.39,1.45,3.79,2.43,6.32,3.47l1,.43,2.43-.76-.66-.27c-3.36-1.43-7.54-3.2-8-7.34A6.71,6.71,0,0,1,29.72,18a4.53,4.53,0,0,1,3.05-1.75l.12-.3A8.18,8.18,0,0,0,31.91,15.84Z"/></g><g id="_38812360" data-name=" 38812360"><path class="cls-3" d="M43.72,12.27c-1.9.09-5.15-.12-6.69.36-8.12,2.57-5,15.24,2.12,17.2a43.75,43.75,0,0,1,6.33-.94C41.06,26.21,34.3,16.71,43.72,12.27Z"/><path class="cls-2" d="M39.15,29.93h0c-4.3-1.18-7-6.06-7-10.1C32,16.2,33.82,13.55,37,12.54a19.31,19.31,0,0,1,4.71-.34c.74,0,1.44,0,2,0a.1.1,0,0,1,.09.07.09.09,0,0,1-.05.11c-3,1.4-4.55,3.4-4.69,5.95-.22,4.17,3.61,8.78,6.46,10.5a.1.1,0,0,1,0,.11.1.1,0,0,1-.08.07,42.85,42.85,0,0,0-6.16.9l-.16,0Zm2.14-17.54a16.76,16.76,0,0,0-4.23.33c-3.1,1-4.83,3.57-4.77,7.1.08,4,2.67,8.75,6.87,9.92l.13,0a42,42,0,0,1,5.91-.88c-2.86-1.86-6.53-6.4-6.31-10.53.13-2.51,1.61-4.5,4.4-5.92h-2Z"/></g><g id="_135741248" data-name=" 135741248"><path class="cls-3" d="M49.7,28.77H47.79c-4-4.3-6.14-12-.55-16.53.08,0,.64-.07,2.46,0s2.38,0,2.46,0c5.59,4.57,3.5,12.23-.54,16.53Z"/><path class="cls-2" d="M49.7,28.86H47.79a.09.09,0,0,1-.07,0,14.1,14.1,0,0,1-4-10.1,9.13,9.13,0,0,1,3.42-6.57l.06,0h.11c.24,0,.9-.06,2.35,0s2.11,0,2.35,0h.11l.06,0a9.06,9.06,0,0,1,3.42,6.57,14.09,14.09,0,0,1-4,10.1.11.11,0,0,1-.07,0Zm-1.87-.19h3.75a13.9,13.9,0,0,0,3.87-9.94,8.88,8.88,0,0,0-3.32-6.41H52c-.24,0-.89-.05-2.34,0s-2.1,0-2.34,0h-.09A8.92,8.92,0,0,0,44,18.74,13.87,13.87,0,0,0,47.83,28.67Z"/></g><g id="_135693024" data-name=" 135693024"><path class="cls-3" d="M55.68,12.27c1.9.09,5.15-.12,6.69.36,8.13,2.57,5,15.24-2.12,17.2a43.33,43.33,0,0,0-6.33-.94c4.43-2.68,11.18-12.18,1.76-16.62Z"/><path class="cls-2" d="M60.25,29.93h0l-.15,0a43,43,0,0,0-6.17-.9.1.1,0,0,1-.08-.07.12.12,0,0,1,0-.11c2.85-1.72,6.68-6.33,6.46-10.5-.13-2.55-1.71-4.55-4.69-5.95a.1.1,0,0,1,0-.11.1.1,0,0,1,.09-.07c.58,0,1.27,0,2,0a19.31,19.31,0,0,1,4.71.34c3.18,1,5,3.66,4.9,7.28-.08,4-2.73,8.92-7,10.1Zm-6-1.1a42.05,42.05,0,0,1,5.9.88l.14,0c4.2-1.17,6.78-6,6.86-9.92.07-3.53-1.67-6.12-4.77-7.1a19.31,19.31,0,0,0-4.65-.33H56.11c2.79,1.42,4.28,3.41,4.41,5.92C60.73,22.43,57.07,27,54.21,28.83Z"/></g><g id="_135967688" data-name=" 135967688"><path class="cls-3" d="M66.67,16.32c3,.35,4.64,3.52,4.29,6.5-.52,4.45-5.36,6.12-8.86,7.64l2.7.84c3-1.24,5.82-2.27,7.42-3.93,4.43-4.59,1.1-12.48-5.73-11.5Z"/><path class="cls-2" d="M64.8,31.39h0l-2.69-.84a.1.1,0,0,1,0-.18L63,30c3.32-1.4,7.45-3.15,7.92-7.18a6.52,6.52,0,0,0-1.23-4.71,4.36,4.36,0,0,0-3-1.69.08.08,0,0,1-.07-.05l-.19-.46a.12.12,0,0,1,0-.08.18.18,0,0,1,.07-.05,6.65,6.65,0,0,1,7.08,3.5,7,7,0,0,1-1.27,8.16C70.86,28.91,68.45,29.9,65.9,31l-1.07.43Zm-2.43-.95,2.42.76,1-.43c2.54-1,4.94-2,6.33-3.47a6.84,6.84,0,0,0,1.24-7.95,6.45,6.45,0,0,0-6.77-3.41l.12.29A4.61,4.61,0,0,1,69.79,18a6.74,6.74,0,0,1,1.27,4.85c-.49,4.14-4.67,5.91-8,7.34Z"/></g><g id="path3737"><path class="cls-3" d="M49.71,33.66a40.15,40.15,0,0,0-13.45,2.08c.28-.16-.14-1.6-.48-2.69-.42-1.31-1-1.51-1-1.51a47.47,47.47,0,0,1,15-2.28,47.79,47.79,0,0,1,15,2.25,2.42,2.42,0,0,0-1.16,1.61c-.34,1.09-.63,2.46-.35,2.62a40.7,40.7,0,0,0-13.53-2.08Z"/><path class="cls-2" d="M63.24,35.83h0a41,41,0,0,0-13.5-2.08h0a40.72,40.72,0,0,0-13.42,2.08.09.09,0,0,1-.08-.17s.22-.26-.52-2.58c-.4-1.24-1-1.45-1-1.45a.09.09,0,0,1-.06-.09.1.1,0,0,1,.06-.09,47.49,47.49,0,0,1,15-2.28,47.75,47.75,0,0,1,15.05,2.25.11.11,0,0,1,.06.09.1.1,0,0,1-.06.09,2.38,2.38,0,0,0-1.1,1.55,4.77,4.77,0,0,0-.39,2.51.1.1,0,0,1,0,.12A.11.11,0,0,1,63.24,35.83ZM35,31.56a2.79,2.79,0,0,1,.9,1.46,8,8,0,0,1,.57,2.55,40.6,40.6,0,0,1,13.27-2h0a41.66,41.66,0,0,1,13.35,2,8,8,0,0,1,.44-2.48,2.91,2.91,0,0,1,1-1.56,47.93,47.93,0,0,0-14.79-2.18A48,48,0,0,0,35,31.56Z"/></g><g id="path3739"><path class="cls-3" d="M49.74,29.58A45.07,45.07,0,0,0,35.1,31.76a.44.44,0,0,1-.59-.31.59.59,0,0,1,.3-.71,45.11,45.11,0,0,1,14.93-2.28,45.24,45.24,0,0,1,14.95,2.28.59.59,0,0,1,.3.71.44.44,0,0,1-.59.31,45.25,45.25,0,0,0-14.66-2.18Z"/><path class="cls-2" d="M34.94,31.88a.6.6,0,0,1-.24-.05.57.57,0,0,1-.28-.36.69.69,0,0,1,.36-.82,45,45,0,0,1,15-2.28,45.74,45.74,0,0,1,15,2.28.69.69,0,0,1,.36.82.57.57,0,0,1-.28.36.58.58,0,0,1-.43,0,45.24,45.24,0,0,0-14.63-2.18,45.16,45.16,0,0,0-14.61,2.18A.63.63,0,0,1,34.94,31.88Zm14.8-3.32a44.69,44.69,0,0,0-14.9,2.27.5.5,0,0,0-.24.59.41.41,0,0,0,.18.24.36.36,0,0,0,.29,0,45.27,45.27,0,0,1,14.67-2.18h0a45.31,45.31,0,0,1,14.69,2.18.36.36,0,0,0,.29,0,.41.41,0,0,0,.18-.24.5.5,0,0,0-.24-.59A45.38,45.38,0,0,0,49.74,28.56Z"/></g><g id="path3869"><path class="cls-5" d="M49.74,38.08a42.6,42.6,0,0,1-12.29-1.7,42.68,42.68,0,0,1,12.29-1.67,42.83,42.83,0,0,1,12.31,1.67A42.74,42.74,0,0,1,49.74,38.08Z"/><path class="cls-2" d="M49.74,38.17h0a42.85,42.85,0,0,1-12.32-1.7.1.1,0,0,1,0-.18,42.74,42.74,0,0,1,12.32-1.67,42.83,42.83,0,0,1,12.34,1.67.1.1,0,0,1,0,.18A42.94,42.94,0,0,1,49.74,38.17Zm-12-1.79a42.6,42.6,0,0,0,12,1.6,42.7,42.7,0,0,0,12-1.6,43.41,43.41,0,0,0-12-1.57A43.36,43.36,0,0,0,37.77,36.38Z"/></g><g id="_137123232" data-name=" 137123232"><path class="cls-3" d="M52.63.28a4,4,0,0,1,0,5.59,4,4,0,0,1-6.75-2.79A4,4,0,0,1,47,.28l.21-.19a4.95,4.95,0,1,0,5.24.06Z"/><path class="cls-2" d="M49.82,9.34A5,5,0,0,1,47.19,0a.1.1,0,0,1,.12,0,.09.09,0,0,1,0,.12,1.8,1.8,0,0,0-.2.19,3.86,3.86,0,1,0,5.46,0,.86.86,0,0,0-.14-.13.11.11,0,0,1,0-.13.09.09,0,0,1,.13,0,5,5,0,0,1-2.72,9.27ZM46.52.75a4.85,4.85,0,0,0,3.3,8.41A4.85,4.85,0,0,0,53.19.82a4.14,4.14,0,0,1,.69,2.26A4.05,4.05,0,1,1,46.52.75Z"/></g><g id="_137615856" data-name=" 137615856"><polygon class="cls-3" points="49.86 2.69 51.31 1.64 50.76 3.34 52.21 4.4 50.41 4.4 49.86 6.11 49.3 4.4 47.51 4.4 48.96 3.35 48.4 1.64 49.86 2.69"/><path class="cls-2" d="M49.86,6.2a.09.09,0,0,1-.09-.06l-.54-1.65H47.51a.09.09,0,0,1-.09-.06.11.11,0,0,1,0-.11l1.4-1-.53-1.64a.09.09,0,0,1,0-.11.11.11,0,0,1,.11,0l1.4,1,1.39-1a.11.11,0,0,1,.11,0,.1.1,0,0,1,0,.11l-.53,1.64,1.39,1a.12.12,0,0,1,0,.11.1.1,0,0,1-.09.06H50.48L50,6.14A.1.1,0,0,1,49.86,6.2ZM47.79,4.31H49.3a.09.09,0,0,1,.09.06l.47,1.43.46-1.43a.1.1,0,0,1,.09-.06h1.51L50.7,3.42a.08.08,0,0,1,0-.1l.46-1.44-1.22.89a.11.11,0,0,1-.11,0l-1.22-.89.47,1.44a.09.09,0,0,1,0,.1Z"/></g><g id="g27"><g id="_137790160" data-name=" 137790160"><polygon class="cls-5" points="50.27 32.05 50.62 33.22 49.61 32.48 48.56 33.18 48.99 32.02 48 31.28 49.27 31.3 49.71 30.14 50.06 31.31 51.33 31.34 50.27 32.05"/></g><g id="_1377901601" data-name=" 1377901601"><path class="cls-2" d="M49.35,31.33l-.09.06-1.26,0v-.19l1.27,0Zm0,0,0,.06h-.07Zm.45-1.22v.06l-.45,1.16-.17-.07.44-1.16Zm-.18,0,.1-.25.08.26Zm.44,1.3L50,31.34l-.35-1.18.18-.05.35,1.17Zm0,0H50l0-.06Zm1.32,0h-.05l-1.27,0v-.18l1.27,0Zm-.05-.17h.29l-.24.17Zm-1.15.82,0-.1,1.05-.71.11.16-1.05.7Zm0,0V32l0,0Zm.38,1.23,0,0-.35-1.18.18,0,.34,1.17Zm.14-.11.08.27-.22-.16Zm-1.14-.78h.11l1,.74-.11.15-1-.74Zm0,0,.06,0,.05,0Zm-1.09.74,0,0,1.06-.7.11.15-1.06.7Zm.14.11-.24.16.1-.27ZM49.05,32l0,.11-.44,1.16-.17-.07L48.9,32Zm0,0,.05,0,0,.07Zm-1-.77,0,0,1,.75-.11.15-1-.75Zm-.06.17-.23-.17H48Z"/></g></g><g id="g31"><g id="polygon33"><polygon class="cls-5" points="43.17 32.42 43.69 33.53 42.59 32.96 41.65 33.82 41.9 32.6 40.8 32.03 42.05 31.84 42.31 30.63 42.84 31.73 44.09 31.56 43.17 32.42"/></g><g id="_1" data-name="1"><path class="cls-2" d="M42.14,31.86l-.07.08-1.26.18,0-.18L42,31.75Zm0,0v.07h-.06Zm.25-1.27v.06l-.26,1.21-.18,0,.25-1.21Zm-.18,0,.06-.27.12.25Zm.64,1.21-.1-.05-.53-1.1.17-.08.53,1.1Zm0,0h-.07l0-.06Zm1.31-.2,0,0-1.26.17,0-.18,1.25-.18Zm-.08-.16.29,0-.21.2Zm-1,1,0-.11.93-.86.13.13-.93.87Zm0,0,0-.06.05,0Zm.57,1.15,0,0-.53-1.11.17-.08.53,1.11Zm.13-.12.11.25-.24-.13Zm-1.26-.6h.11l1.1.56-.08.17L42.54,33Zm0,0,0,0,.06,0Zm-1,.91,0,0,.93-.86.13.14-.93.86Zm.16.09-.21.19.05-.28Zm.22-1.37.05.1-.24,1.22-.19,0,.25-1.21Zm0,0,.06,0v.06Zm-1.16-.58h.06l1.1.57-.09.17-1.1-.58Zm0,.17L40.5,32l.28,0Z"/></g></g><g id="g36"><g id="polygon38"><polygon class="cls-5" points="56.41 32.34 55.89 33.45 56.99 32.88 57.92 33.74 57.68 32.53 58.78 31.95 57.53 31.77 57.27 30.55 56.74 31.65 55.48 31.48 56.41 32.34"/></g><g id="path40"><path class="cls-2" d="M57.43,31.78l.11-.11,1.25.19,0,.18-1.26-.18Zm.08.08h-.06l0-.07Zm-.32-1.35.17,0,.26,1.22-.19,0-.25-1.21Zm0,0,.12-.25,0,.27Zm-.46,1.23-.07-.13.53-1.1.17.08-.54,1.1Zm.09,0,0,.06h-.06Zm-1.4-.14.08-.16,1.25.17,0,.18-1.26-.17Zm0,0-.21-.2.29,0Zm1.07.83-.14,0-.93-.86.13-.14.92.86Zm0-.11.05,0,0,.06Zm-.54,1.26-.13-.12.53-1.11.16.08L56,33.49Zm0,0-.25.13.12-.25Zm1.12-.72L57,33l-1.1.56-.09-.16L57,32.8Zm-.1,0,.06,0,0,0Zm1.07.93-.16.08L56.93,33l.12-.14.94.86Zm0,0,0,.28-.21-.2Zm-.38-1.29.13.07L58,33.73l-.19,0-.24-1.22Zm0,.1v-.06l.06,0Zm1.2-.68,0,.17-1.1.58-.08-.17,1.1-.57Zm0,0,.29,0-.26.13Z"/></g></g><g id="g42"><g id="path44"><path class="cls-5" d="M35.82,33.2,36.13,32l.54,1.1,1.25-.17-.92.86.52,1.11-1.1-.57-.23.21Z"/></g><g id="path46"><path class="cls-2" d="M36.22,31.92V32l-.31,1.24-.18,0L36,31.94Zm-.18,0,.07-.25.11.23Zm.64,1.21-.1,0L36.05,32l.17-.08.53,1.1Zm0,0h-.07l0-.06ZM38,33l-.05,0-1.26.17,0-.18,1.26-.18Zm-.08-.16.29,0L38,33Zm-1,1,0-.11.93-.86L38,33l-.93.87Zm0,0,0-.06,0,0Zm.57,1.15,0,0-.53-1.11.17-.08.52,1.11Zm.12-.12.12.25-.24-.13Zm-1.25-.6h.11l1.1.56-.08.17-1.11-.57Zm0,0,0,0,.06,0Zm-.25.31.18-.05-.15,0h.22l.13.14h-.23Zm.15,0-.11.1,0-.14Zm-.52-1.39h.18l.37,1.3-.18.05-.37-1.3Zm0,0v0Z"/></g></g><g id="g48"><g id="path50"><path class="cls-5" d="M63.53,33.12l-.31-1.24L62.68,33l-1.25-.18.92.87-.52,1.1,1.1-.56.23.21Z"/></g><g id="path52"><path class="cls-2" d="M63.13,31.83l.18,0,.31,1.24-.18,0-.31-1.24Zm0,0,.11-.23.07.25Zm-.46,1.24-.07-.13.53-1.11.17.09L62.77,33Zm.1,0,0,.06h-.07Zm-1.41-.15.08-.16,1.26.18,0,.18-1.25-.18Zm0,0-.21-.2.29,0Zm1.08.84-.15,0-.93-.87.13-.14.93.87Zm0-.11,0,0,0,.06Zm-.55,1.26-.12-.13.52-1.1.17.08-.53,1.1Zm0,0-.24.12.12-.25ZM63,34.14l0,.15-1.11.57-.08-.17,1.1-.56Zm-.11,0,.06,0,0,0Zm.36.31-.15.05h-.23l.13-.14h.22l-.15,0Zm0,0,0,.15-.11-.1Zm.37-1.35v0l-.37,1.3-.18,0,.37-1.3Zm0,0v0Z"/></g></g><g id="g54"><g id="polygon56"><polygon class="cls-5" points="50.69 21.04 51.19 22.78 49.71 21.69 48.14 22.73 48.79 21 47.31 19.9 49.19 19.93 49.85 18.21 50.37 19.95 52.24 19.99 50.69 21.04"/></g><g id="path58"><path class="cls-2" d="M49.28,20l-.09.06-1.88,0v-.18l1.87,0Zm0,0,0,.06h-.07Zm.66-1.77v0L49.28,20l-.17-.07.65-1.71Zm-.18,0,.1-.26.08.27ZM50.37,20,50.28,20l-.52-1.74.18,0,.52,1.73Zm0,0H50.3l0-.06Zm1.93,0-.06,0L50.37,20v-.18l1.88,0Zm0-.17h.29l-.24.16ZM50.6,21.06l0-.1,1.56-1.05.11.16-1.56,1Zm0,0,0-.06.05,0Zm.54,1.79,0-.05-.5-1.74.18,0,.5,1.74Zm.14-.1.08.27-.22-.17Zm-1.62-1.14h.1l1.49,1.09-.11.15-1.49-1.09Zm0,0,.05,0,0,0Zm-1.61,1.08,0,0,1.57-1,.1.16-1.57,1Zm.14.11L48,23l.1-.27Zm.65-1.87,0,.11-.64,1.72-.18-.07L48.7,21Zm0,0,.06,0,0,.07Zm-1.52-1.12,0,0,1.47,1.1-.11.15L47.26,20Zm-.06.16L47,19.8h.29Z"/></g></g><g id="g60"><g id="polygon62"><polygon class="cls-5" points="50.35 26.53 50.69 27.71 49.69 26.97 48.63 27.67 49.07 26.51 48.08 25.76 49.34 25.78 49.79 24.62 50.14 25.8 51.41 25.82 50.35 26.53"/></g><g id="path64"><path class="cls-2" d="M49.43,25.81l-.09.06H48.08v-.19l1.27,0Zm0,0,0,.07h-.07Zm.45-1.21v.06l-.45,1.15-.17-.06.44-1.16Zm-.18,0,.1-.26.08.27Zm.44,1.3-.09-.07-.35-1.17.18,0,.35,1.17Zm0,0h-.07l0-.07Zm1.32,0-.06,0-1.26,0V25.7l1.27,0Zm-.05-.17h.29l-.24.16Zm-1.15.83,0-.11,1.05-.7.11.15-1.06.71Zm0,0,0-.07.06,0Zm.38,1.22,0-.05-.34-1.17.18-.06.34,1.18Zm.14-.1.08.26-.22-.16Zm-1.14-.79h.11l1,.73-.11.15-1-.73Zm0,0,.06,0,0,0Zm-1.09.75,0-.05,1.06-.7.1.16-1.05.7Zm.14.11-.24.16.1-.27Zm.44-1.32,0,.11-.44,1.16-.17-.06L49,26.48Zm0,0,0,.05,0,.06Zm-1.05-.76.05,0,1,.74-.12.15-1-.74Zm-.06.17-.23-.17h.29Z"/></g></g><g id="g66"><g id="polygon68"><polygon class="cls-5" points="50.43 15.11 50.77 16.29 49.77 15.55 48.71 16.25 49.15 15.09 48.16 14.34 49.42 14.36 49.87 13.2 50.22 14.38 51.48 14.4 50.43 15.11"/></g><g id="path70"><path class="cls-2" d="M49.51,14.39l-.09.06H48.15v-.19l1.26,0Zm0,0,0,.07h-.07ZM50,13.18v.06l-.44,1.15-.17-.06.44-1.16Zm-.18,0,.1-.26.08.27Zm.43,1.3-.08-.07-.35-1.17.18-.05.35,1.17Zm0,0h-.06l0-.07Zm1.33,0-.06,0-1.27,0v-.19l1.27,0Zm0-.17h.29l-.24.16Zm-1.15.83,0-.11,1-.7.11.15-1.06.71Zm0,0,0-.07.06,0Zm.38,1.22,0-.05-.34-1.17.18-.06.34,1.18Zm.14-.1.08.26-.22-.16Zm-1.14-.79h.11l1,.73-.11.15-1-.73Zm0,0,.05,0,.06,0Zm-1.1.75,0,0,1.06-.7.1.16-1.06.7Zm.14.11-.24.16.1-.27ZM49.2,15l0,.11-.43,1.16-.18-.06.44-1.16Zm0,0,.06.05,0,.06Zm-1-.76.05,0,1,.74-.11.15-1-.74Zm-.06.17-.23-.17h.29Z"/></g></g><g id="g72"><g id="polygon74"><polygon class="cls-5" points="37.55 15.71 37.41 16.93 36.77 15.86 35.53 16.1 36.37 15.2 35.74 14.13 36.91 14.63 37.76 13.73 37.63 14.95 38.79 15.46 37.55 15.71"/></g><g id="path76"><path class="cls-2" d="M37,14.69l-.1,0-1.17-.51.08-.17,1.16.5Zm0,0,0,.05-.06,0Zm.88-.95,0,0-.86.9-.13-.12.85-.9Zm-.16-.07.19-.2,0,.27ZM37.6,15l-.06-.09.13-1.22.18,0L37.73,15Zm0,0-.07,0v-.07Zm1.21.52h-.06L37.6,15l.07-.17,1.16.51Zm0-.18.27.12-.29.06Zm-1.37.33.07-.08,1.24-.25,0,.18-1.24.25Zm0,0v-.07h.07ZM37.33,17v-.06l.14-1.21.18,0-.13,1.21Zm.18,0,0,.28L37.33,17Zm-.76-1.16.1,0,.64,1.07-.16.09-.64-1.06Zm0,0h.07l0,.05ZM35.46,16l0,0,1.24-.24,0,.18-1.25.25Zm.08.16-.28.05.2-.21Zm.91-1v.11l-.85.91L35.46,16l.84-.91Zm0,0,0,.06-.05,0ZM35.78,14l0,0,.63,1.07-.16.09-.63-1.06Zm-.12.14-.15-.25.27.11Z"/></g></g><g id="g78"><g id="polygon80"><polygon class="cls-5" points="39.03 26.28 39.63 27.34 38.49 26.86 37.62 27.79 37.77 26.56 36.63 26.06 37.87 25.79 38.03 24.55 38.65 25.61 39.89 25.35 39.03 26.28"/></g><g id="path82"><path class="cls-2" d="M38,25.8l-.07.08-1.23.27,0-.18,1.24-.28Zm0,0v.06l-.07,0Zm.16-1.29v.06L38,25.8l-.18,0,.16-1.23Zm-.18,0,0-.27.14.24Zm.73,1.17-.1-.05L38,24.6l.17-.09.61,1.06Zm0,0H38.6l0-.06Zm1.28-.3,0,0-1.24.27,0-.19,1.24-.26Zm-.08-.15.28-.07-.2.22ZM39,26.32v-.1l.86-.94.13.13-.85.93Zm0,0,0-.05.05-.05Zm.64,1.11,0,0L39,26.32l.16-.09.6,1.07Zm.12-.13.14.24-.26-.11Zm-1.29-.5.1,0,1.15.49-.08.17L38.45,27Zm0,0,0-.05.06,0Zm-.89,1,0-.06.87-.92.14.12-.87.93Zm.16.07-.2.21,0-.28Zm.12-1.38.06.1-.16,1.23-.18,0,.15-1.24Zm0,0,.06,0v.07Zm-1.2-.5h.06l1.14.49-.07.17-1.14-.49Zm0,.18L36.34,26l.27-.06Z"/></g></g><g id="g84"><g id="polygon86"><polygon class="cls-5" points="36.65 21.27 37.09 22.61 35.91 21.81 34.73 22.66 35.18 21.3 34 20.49 35.46 20.46 35.92 19.1 36.37 20.44 37.83 20.42 36.65 21.27"/></g><g id="path88"><path class="cls-2" d="M35.55,20.49l-.09.06-1.46,0V20.4l1.46,0Zm0,0,0,.06h-.07ZM36,19.07v.06l-.46,1.36-.18-.06.46-1.36Zm-.18,0,.09-.26.09.26Zm.55,1.46-.09-.06-.46-1.34.18-.06.45,1.34Zm0,0h-.07l0-.06Zm1.51,0-.06,0-1.45,0v-.19l1.46,0Zm-.06-.17h.29l-.23.17Zm-1.27,1,0-.1,1.18-.86.11.15-1.18.86Zm0,0,0-.06.06,0ZM37,22.69l0-.05-.45-1.34.18-.06.44,1.34Zm.14-.11.09.26L37,22.69Zm-1.32-.85H36l1.19.8-.11.16-1.18-.8Zm0,0,0,0,.05,0Zm-1.22.9,0-.05,1.19-.85.11.15-1.19.85Zm.14.1-.23.17.09-.27Zm.45-1.5,0,.1-.45,1.36-.17-.06.45-1.36Zm0,0,.06,0,0,.06ZM34,20.4h0l1.18.82-.11.15L34,20.57Zm0,.17-.24-.17H34Z"/></g></g><g id="g90"><g id="polygon92"><polygon class="cls-5" points="28.18 19.04 28.1 19.72 27.74 19.13 27.05 19.26 27.52 18.76 27.17 18.16 27.82 18.44 28.29 17.94 28.22 18.62 28.87 18.91 28.18 19.04"/></g><g id="path94"><path class="cls-2" d="M27.89,18.51l-.11,0-.65-.28.08-.17.64.28Zm0,0-.05,0-.06,0Zm.5-.56,0,.06-.47.5-.14-.13.47-.5Zm-.17-.07.19-.2,0,.27Zm0,.83-.06-.1.07-.68.19,0-.07.68Zm0,0-.07,0v-.07Zm.7.29h-.06l-.64-.28.07-.18.65.29Zm0-.18.26.12-.28.06Zm-.83.21.08-.08.69-.14,0,.19-.7.13Zm0,0V19l.07,0Zm-.06.74v-.06l.07-.68.19,0-.08.68Zm.17,0,0,.27L28,19.77ZM27.73,19l.09,0,.36.59-.16.1-.36-.59Zm0,0h.06l0,0ZM27,19.2l.05,0,.7-.13,0,.18-.69.14Zm.09.16-.28.05L27,19.2Zm.53-.65v.11l-.47.51L27,19.2l.47-.5Zm0,0,0,.06-.05.05Zm-.39-.63,0,0,.35.59-.16.1-.35-.6Zm-.12.13L26.94,18l.27.11Z"/></g></g><g id="g96"><g id="polygon98"><polygon class="cls-5" points="30.77 28.04 31.34 28.41 30.65 28.47 30.47 29.15 30.22 28.5 29.53 28.56 30.07 28.1 29.83 27.45 30.41 27.81 30.95 27.36 30.77 28.04"/></g><g id="path100"><path class="cls-2" d="M30.16,28.07l0,.1-.54.46-.12-.14L30,28Zm0,0,0,.06-.05,0Zm-.28-.7,0,.05.24.65-.18.06-.24-.65Zm-.14.11-.1-.25.24.14Zm.73.4h-.11l-.58-.36.1-.16.58.36Zm0,0-.06.05-.05,0Zm.57-.5,0,.05-.54.45-.12-.14.53-.45Zm-.16-.09.23-.19-.07.28Zm-.16.83,0-.1.18-.68.18,0-.18.68Zm0,0-.06,0,0-.06Zm.63.38h-.06l-.57-.37.1-.16.57.37Zm0-.17.23.15-.27,0Zm-.83.11.08-.06.69-.07,0,.19-.69.06Zm0,0,0-.06h.06Zm-.18.74v-.05l.18-.69.18,0-.18.68Zm.18,0-.08.28-.1-.27Zm-.35-.76.1.06.24.65-.17.06-.25-.64Zm0,0h.07l0,.06Zm-.74.08.06,0,.68-.06,0,.19-.69,0Zm.07.16-.29,0,.22-.18Z"/></g></g><g id="g102"><g id="polygon104"><polygon class="cls-5" points="27.5 23.78 27.91 24.56 27.1 24.18 26.45 24.82 26.6 23.94 25.8 23.56 26.69 23.39 26.84 22.52 27.25 23.29 28.14 23.13 27.5 23.78"/></g><g id="path106"><path class="cls-2" d="M26.78,23.41l-.07.07-.9.17,0-.18.89-.17Zm0,0v.06h-.06Zm.14-.94v.06l-.15.88-.18,0,.15-.88Zm-.17,0,0-.27.13.24Zm.52.88-.1,0-.41-.78.16-.09.41.78Zm0,0-.07,0,0-.06Zm.94-.18-.05,0-.89.15,0-.18.9-.16ZM28.13,23l.29-.05-.21.21Zm-.71.78,0-.11.64-.64.13.13-.64.64Zm0,0,0-.06.05-.05Zm.45.82-.05,0-.4-.78.17-.09.4.78Zm.12-.13.13.25-.25-.12Zm-.95-.4h.1l.81.37-.08.17-.81-.38Zm0,0,0,0,.06,0Zm-.68.7,0-.06.65-.64.13.14-.65.64Zm.16.08-.2.2,0-.28Zm.12-1,.05.1-.14.87-.19,0,.15-.88Zm0,0,.06,0V24Zm-.86-.39h.06l.8.39-.08.17-.8-.39Zm0,.17-.26-.12.28-.05Z"/></g></g><g id="g108"><g id="polygon110"><polygon class="cls-5" points="62 15.63 62.13 16.85 62.78 15.79 64.02 16.03 63.17 15.12 63.81 14.05 62.64 14.55 61.79 13.65 61.91 14.87 60.76 15.38 62 15.63"/></g><g id="path112"><path class="cls-2" d="M62.58,14.62l0-.15,1.16-.5.07.17-1.16.5Zm.1,0-.06,0,0,0Zm-1-1,.16-.07.85.9-.13.13-.86-.9Zm0,0,0-.27.19.2ZM62,15l-.13-.08-.12-1.22.18,0L62,14.86Zm.06-.1v.07L62,15Zm-1.27.61,0-.17,1.16-.52L62,15l-1.16.51Zm0,0-.29-.06.27-.11Zm1.35.15-.11.1-1.24-.25,0-.18,1.25.25ZM62,15.54h.06v.07Zm.19,1.36-.17,0-.13-1.22.18,0,.14,1.22Zm0,0-.14.23,0-.27Zm.58-1.21.07.14-.65,1.07-.16-.1.65-1.06Zm-.09.05,0-.06h.06Zm1.39.22-.09.16-1.24-.24,0-.19,1.25.24Zm0,0,.2.21L64,16.12Zm-1-.89h.15l.85.9-.14.13-.84-.91Zm0,.11,0,0,0-.06ZM63.77,14l.12.13-.63,1.07-.17-.1L63.73,14Zm0,0,.26-.12-.14.25Z"/></g></g><g id="g114"><g id="polygon116"><polygon class="cls-5" points="60.52 26.2 59.92 27.27 61.06 26.78 61.93 27.71 61.77 26.48 62.91 25.98 61.67 25.71 61.51 24.48 60.9 25.54 59.66 25.27 60.52 26.2"/></g><g id="path118"><path class="cls-2" d="M61.58,25.72l.12-.1,1.23.27,0,.18-1.23-.27Zm.08.08-.07,0v-.06Zm-.23-1.37.18,0,.16,1.23-.19,0-.16-1.23Zm0,0,.14-.24,0,.27Zm-.55,1.2-.06-.14.61-1.06.16.09L61,25.58Zm.1-.05,0,.06h-.07Zm-1.39-.25.09-.15,1.24.27,0,.18-1.24-.27Zm0,0-.2-.21.29.06Zm1,.92h-.15l-.86-.93.14-.12.86.93Zm0-.11,0,.05,0,.06ZM60,27.35l-.11-.13.6-1.07.16.1L60,27.31Zm0,0-.25.11.14-.24Zm1.18-.63,0,.15L60,27.35l-.07-.17L61,26.7Zm-.11,0,.06,0,.05,0Zm1,1-.16.07L61,26.85l.14-.13.87.93Zm0,0,0,.28-.2-.21Zm-.28-1.31.13.08L62,27.7l-.19,0-.15-1.23Zm-.06.1v-.07l.07,0Zm1.25-.6,0,.18-1.14.49-.07-.17,1.14-.49Zm0,0,.28.07-.26.11Z"/></g></g><g id="g120"><g id="polygon122"><polygon class="cls-5" points="62.9 21.2 62.45 22.53 63.63 21.73 64.82 22.58 64.37 21.23 65.55 20.41 64.09 20.38 63.63 19.03 63.17 20.36 61.72 20.34 62.9 21.2"/></g><g id="path124"><path class="cls-2" d="M64,20.41l.09-.12,1.46,0v.19l-1.45,0L64,20.41Zm.09.06H64l0-.06ZM63.54,19h.18l.46,1.35-.18.06-.46-1.35Zm0,0,.09-.26.09.26Zm-.37,1.45-.09-.12L63.54,19l.18.06-.46,1.33Zm.09-.06,0,.06h-.07Zm-1.6,0,.06-.17,1.46,0v.18l-1.46,0-.05,0Zm0,0-.24-.17h.3Zm1.32.81-.14.05-1.18-.86.11-.15,1.18.86Zm0-.1.06,0,0,.06Zm-.45,1.49-.14-.11.45-1.33.17,0-.44,1.34Zm0,0-.22.15.08-.26Zm1.19-1v.16l-1.19.8-.1-.15,1.18-.81Zm-.11,0,.06,0,0,0Zm1.33.9-.14.11-1.19-.85.11-.16,1.19.86Zm0,0,.09.27-.23-.16Zm-.59-1.4.14.05.45,1.35-.18.06-.45-1.35Zm0,.11,0-.07.06,0Zm1.27-.94,0,.17-1.18.81-.1-.15,1.17-.81Zm0,0h.28l-.23.16Z"/></g></g><g id="g126"><g id="polygon128"><polygon class="cls-5" points="71.37 18.97 71.45 19.64 71.81 19.05 72.5 19.19 72.03 18.68 72.38 18.09 71.73 18.37 71.25 17.86 71.33 18.54 70.68 18.83 71.37 18.97"/></g><g id="path130"><path class="cls-2" d="M71.66,18.43l0-.15.65-.28.08.17-.65.28Zm.11,0-.06,0,0-.05Zm-.61-.58.16-.07.48.5-.14.13-.47-.5Zm0,0,0-.27.19.2Zm.2.76-.13-.08-.07-.68h.19l.07.67Zm.06-.1v.07l-.07,0Zm-.76.39,0-.18.65-.28.07.17-.64.28Zm0,0-.29-.06.27-.12Zm.8,0-.11.1-.69-.14,0-.18.69.13Zm-.07-.09.07,0V19Zm.14.82-.18,0L71.28,19l.18,0,.08.67Zm0,0-.15.24,0-.28Zm.29-.73.06.14-.35.59-.16-.1.35-.59Zm-.1,0,0-.05h.06Zm.85.12-.09.16-.69-.14,0-.18.7.13Zm0,0,.19.21-.28,0ZM72,18.63h.14l.48.5-.14.13L72,18.74Zm0,.11,0,0,0-.06Zm.38-.74.12.13-.35.6-.16-.1L72.3,18Zm0,0,.26-.11-.14.24Z"/></g></g><g id="g132"><g id="polygon134"><polygon class="cls-5" points="68.78 27.96 68.21 28.33 68.9 28.39 69.08 29.07 69.33 28.43 70.02 28.48 69.48 28.02 69.72 27.37 69.14 27.74 68.6 27.28 68.78 27.96"/></g><g id="path136"><path class="cls-2" d="M69.39,28l.15,0,.54.46-.13.14-.53-.46Zm0,.1,0,0,0-.06Zm.25-.79.14.11-.24.64L69.39,28l.24-.65Zm0,0,.23-.15-.09.26Zm-.59.51v-.15l.58-.36.1.15-.58.36Zm.11,0-.06,0,0,0Zm-.68-.5.15-.1.54.45-.12.15-.54-.46Zm0,0L68.44,27l.22.19Zm.32.73L68.69,28l-.18-.68.18,0,.18.68Zm0-.1,0,.07-.06,0Zm-.67.48,0-.17.57-.37.1.16-.57.37Zm0,0-.27,0,.23-.15Zm.79-.05-.1.11-.69-.06,0-.18.68.06Zm-.09-.07H69l0,.07Zm.27.8H69l-.18-.69.18,0,.18.68v.05Zm0,0-.1.27L69,29.1Zm.16-.77.08.13-.24.64L69,29l.25-.65Zm-.09.06,0-.06h.07Zm.84,0-.07.16-.69-.05v-.19l.69.06Zm0,0,.21.19-.28,0Z"/></g></g><g id="g138"><g id="polygon140"><polygon class="cls-5" points="72.04 23.7 71.64 24.48 72.45 24.1 73.09 24.74 72.95 23.86 73.75 23.48 72.86 23.32 72.71 22.44 72.3 23.21 71.4 23.06 72.04 23.7"/></g><g id="path142"><path class="cls-2" d="M72.77,23.33l.1-.11.9.17,0,.18-.89-.16Zm.07.08-.06,0v-.06Zm-.22-1,.18,0,.15.88-.18,0-.15-.88Zm0,0,.13-.24,0,.27Zm-.34.92-.07-.14.41-.78.17.09-.41.78Zm.1,0,0,.06h-.07Zm-1-.14.08-.16.89.16,0,.19-.89-.16Zm0,0-.21-.21.29.05Zm.79.62-.15,0-.64-.65.13-.13.64.64Zm0-.11,0,.05,0,.06Zm-.43.93-.12-.12.4-.78.17.08-.41.78Zm0,0-.25.12.13-.24Zm.83-.52,0,.15-.81.37-.08-.17.81-.37Zm-.1,0,.06,0,0,.05Zm.77.71-.15.08-.65-.64.13-.13.65.64Zm0,0,0,.28-.2-.2Zm-.27-.95.13.07.14.88-.18,0-.14-.88Zm0,.1v-.07l.06,0Zm.91-.49,0,.17L73,24l-.08-.17.8-.38Zm0,0,.28.05-.26.12Z"/></g></g></g><g id="path144"><path class="cls-1" d="M41,52.76a3.65,3.65,0,0,1,2.15-1.7c1.32-.41,4.14-.16,5.64-.25,0-.07,0,.22,0-.2A1.32,1.32,0,0,1,50,49.42a1.68,1.68,0,0,1,1.48,1.19,1,1,0,0,1,0,.19l1.89,0h0a19.55,19.55,0,0,1,3.68.23,3.62,3.62,0,0,1,2.2,1.77.22.22,0,0,1,.14,0,3.72,3.72,0,0,1,3.16,6.35,12.57,12.57,0,0,1-4,2.15.26.26,0,0,1,0,.15.24.24,0,0,1-.32.17h0a1.73,1.73,0,0,0-.44.75c-.19.6-.35,1.36-.19,1.45h0a.36.36,0,0,1,.14.3.34.34,0,0,1-.2.36,22.26,22.26,0,0,1-7.36,1.1,22.3,22.3,0,0,1-7.36-1.1.37.37,0,0,1-.2-.36.36.36,0,0,1,.14-.3h0c.15-.09-.08-.89-.27-1.49a1.68,1.68,0,0,0-.39-.7.25.25,0,0,1-.31-.18.28.28,0,0,1,0-.18,12.25,12.25,0,0,1-4-2.12,3.72,3.72,0,0,1,3.16-6.35h0l0,0Z"/><path class="cls-2" d="M50.16,65.68a22.6,22.6,0,0,1-7.39-1.11.43.43,0,0,1-.26-.45.52.52,0,0,1,.1-.31.1.1,0,0,1,0-.06s.06-.23-.31-1.38a1.92,1.92,0,0,0-.33-.63.38.38,0,0,1-.21,0,.41.41,0,0,1-.16-.22.59.59,0,0,1,0-.14l-.39-.16a10.72,10.72,0,0,1-3.54-2A3.91,3.91,0,0,1,37,54.67a3.7,3.7,0,0,1,3.92-2A3.73,3.73,0,0,1,43.11,51a14.81,14.81,0,0,1,3.83-.24c.66,0,1.28,0,1.76,0,0,0,0-.06,0-.11A1.41,1.41,0,0,1,50,49.32a1.78,1.78,0,0,1,1.57,1.28.75.75,0,0,0,0,.11l1.84,0c.29,0,.64,0,1,0a11.13,11.13,0,0,1,2.7.22,3.75,3.75,0,0,1,2.22,1.75h.08a3.7,3.7,0,0,1,3.95,2,3.93,3.93,0,0,1-.71,4.56,10.67,10.67,0,0,1-3.55,2l-.46.19a.36.36,0,0,1,0,.11.35.35,0,0,1-.17.22.29.29,0,0,1-.22,0,1.64,1.64,0,0,0-.38.68,2.92,2.92,0,0,0-.23,1.34s0,0,0,.06a.47.47,0,0,1,.1.32.43.43,0,0,1-.26.44A22.6,22.6,0,0,1,50.16,65.68ZM42.83,63.8a.08.08,0,0,1,0,.09.26.26,0,0,0-.1.23c0,.11,0,.24.13.27a22.28,22.28,0,0,0,7.33,1.1,22,22,0,0,0,7.33-1.1c.1,0,.14-.16.14-.26a.3.3,0,0,0-.1-.24.08.08,0,0,1,0-.09,3.59,3.59,0,0,1,.23-1.45,1.85,1.85,0,0,1,.47-.79.1.1,0,0,1,.09,0,.15.15,0,0,0,.13,0,.15.15,0,0,0,.08-.11.37.37,0,0,0,0-.11.1.1,0,0,1,0-.1l.53-.22a10.5,10.5,0,0,0,3.48-1.9,3.73,3.73,0,0,0,.68-4.35,3.52,3.52,0,0,0-3.76-1.85h-.14a.09.09,0,0,1-.1-.05,3.52,3.52,0,0,0-2.13-1.72,11.26,11.26,0,0,0-2.65-.21l-1,0h0l-1.89,0c-.05,0-.08,0-.09-.09v-.05a.71.71,0,0,1,0-.14A1.6,1.6,0,0,0,50,49.51a1.23,1.23,0,0,0-1.13,1.1c0,.23,0,.32-.1.32a.1.1,0,0,1-.07,0c-.5,0-1.12,0-1.78,0a14.84,14.84,0,0,0-3.78.23,3.56,3.56,0,0,0-2.1,1.66h0v0a.11.11,0,0,1-.09.06h0a3.53,3.53,0,0,0-3.77,1.85,3.74,3.74,0,0,0,.67,4.35A10.71,10.71,0,0,0,41.31,61l.46.19a.1.1,0,0,1,.06.11.29.29,0,0,0,0,.13.15.15,0,0,0,.08.11.2.2,0,0,0,.11,0,.1.1,0,0,1,.09,0,1.89,1.89,0,0,1,.42.75A3.48,3.48,0,0,1,42.83,63.8Z"/></g><g id="ellipse146"><ellipse class="cls-4" cx="50.17" cy="50.64" rx="1.42" ry="1.44"/><path class="cls-2" d="M50.17,52.17a1.54,1.54,0,1,1,1.51-1.53A1.53,1.53,0,0,1,50.17,52.17Zm0-2.88a1.35,1.35,0,1,0,1.32,1.35A1.33,1.33,0,0,0,50.17,49.29Z"/></g><g id="path148"><path class="cls-3" d="M40.84,53c-1.68.2-2.56,1.95-2.37,3.59.29,2.46,3,3.39,4.9,4.22l-1.49.47a13,13,0,0,1-4.1-2.17,3.72,3.72,0,0,1,3.16-6.36Z"/><path class="cls-2" d="M41.88,61.4h0l-.58-.24a10.67,10.67,0,0,1-3.55-1.95A3.93,3.93,0,0,1,37,54.64a3.7,3.7,0,0,1,4-2,.07.07,0,0,1,.06,0,.1.1,0,0,1,0,.09l-.1.25a.08.08,0,0,1-.08,0,2.4,2.4,0,0,0-1.61.92,3.55,3.55,0,0,0-.67,2.57c.26,2.2,2.52,3.17,4.35,3.94l.49.21a.09.09,0,0,1,.05.09.09.09,0,0,1-.06.08l-1.49.47Zm-1.55-8.57a3.44,3.44,0,0,0-3.16,1.9,3.72,3.72,0,0,0,.68,4.34A10.51,10.51,0,0,0,41.33,61l.55.23,1.22-.38-.26-.11c-1.86-.79-4.19-1.78-4.46-4.09a3.7,3.7,0,0,1,.71-2.7,2.57,2.57,0,0,1,1.69-1l0-.09Z"/></g><g id="path150"><path class="cls-3" d="M46.86,50.82a19.87,19.87,0,0,0-3.7.2c-4.49,1.42-2.78,8.41,1.17,9.5a25.34,25.34,0,0,1,3.5-.52c-2.44-1.48-6.18-6.73-1-9.18Z"/><path class="cls-2" d="M44.33,60.61h0C41.92,60,40.44,57.24,40.4,55a3.88,3.88,0,0,1,2.73-4.06,10.26,10.26,0,0,1,2.62-.19c.41,0,.79,0,1.11,0a.1.1,0,0,1,.09.07.09.09,0,0,1-.05.11,3.84,3.84,0,0,0-2.57,3.26c-.12,2.28,2,4.81,3.55,5.76a.1.1,0,0,1,0,.1.08.08,0,0,1-.08.07,24.54,24.54,0,0,0-3.4.5l-.09,0Zm1.19-9.69a9.73,9.73,0,0,0-2.33.18A3.71,3.71,0,0,0,40.59,55c0,2.17,1.45,4.79,3.75,5.43h.06a23.83,23.83,0,0,1,3.15-.48C46,58.86,44,56.39,44.14,54.15a3.88,3.88,0,0,1,2.3-3.23h-.92Z"/></g><g id="path152"><path class="cls-3" d="M50.16,59.93H49.1c-2.23-2.37-3.39-6.61-.3-9.13.05,0,.36,0,1.36,0s1.32,0,1.36,0c3.09,2.52,1.93,6.76-.3,9.13Z"/><path class="cls-2" d="M50.16,60H49.1A.11.11,0,0,1,49,60a7.87,7.87,0,0,1-2.2-5.62,5.08,5.08,0,0,1,1.9-3.66l.07,0h0c.14,0,.5,0,1.3,0s1.17,0,1.31,0h.05l.06,0a5.09,5.09,0,0,1,1.91,3.66A7.87,7.87,0,0,1,51.29,60a.15.15,0,0,1-.07,0Zm-1-.19h2a7.64,7.64,0,0,0,2.12-5.45,4.86,4.86,0,0,0-1.81-3.5h0c-.14,0-.5,0-1.3,0s-1.16,0-1.29,0h0A4.82,4.82,0,0,0,47,54.39,7.64,7.64,0,0,0,49.15,59.84Z"/></g><g id="path154"><path class="cls-3" d="M53.47,50.82a19.76,19.76,0,0,1,3.69.2c4.49,1.42,2.79,8.41-1.17,9.5a24.89,24.89,0,0,0-3.5-.52C54.94,58.52,58.67,53.27,53.47,50.82Z"/><path class="cls-2" d="M56,60.61h0l-.08,0a24.54,24.54,0,0,0-3.4-.5A.1.1,0,0,1,52.4,60a.09.09,0,0,1,.05-.1C54,59,56.11,56.44,56,54.16a3.83,3.83,0,0,0-2.56-3.26.09.09,0,0,1,0-.11.1.1,0,0,1,.09-.07c.32,0,.7,0,1.11,0a10.14,10.14,0,0,1,2.61.19A3.87,3.87,0,0,1,59.93,55c0,2.25-1.52,5-3.91,5.62Zm-3.21-.68a23.83,23.83,0,0,1,3.15.48H56c2.29-.64,3.71-3.26,3.75-5.43a3.71,3.71,0,0,0-2.6-3.89,10.69,10.69,0,0,0-2.56-.18h-.7a3.84,3.84,0,0,1,2.3,3.23C56.3,56.39,54.35,58.86,52.78,59.93Z"/></g><g id="path156"><path class="cls-3" d="M59.54,53.05a3.05,3.05,0,0,1,2.37,3.59C61.62,59.1,59,60,57,60.87l1.49.46a13.15,13.15,0,0,0,4.1-2.17,3.73,3.73,0,0,0-3.17-6.36Z"/><path class="cls-2" d="M58.51,61.42h0L57,61a.09.09,0,0,1,0-.17l.49-.21c1.82-.77,4.09-1.73,4.35-3.94a3.55,3.55,0,0,0-.67-2.57,2.39,2.39,0,0,0-1.62-.91.16.16,0,0,1-.08-.06l-.1-.25a.11.11,0,0,1,0-.08.08.08,0,0,1,.07,0,3.7,3.7,0,0,1,4,1.95,3.91,3.91,0,0,1-.71,4.56,10.72,10.72,0,0,1-3.54,2l-.59.25Zm-1.22-.57,1.21.38.56-.23a10.53,10.53,0,0,0,3.48-1.91,3.73,3.73,0,0,0,.68-4.34,3.52,3.52,0,0,0-3.65-1.87l0,.09a2.57,2.57,0,0,1,1.69,1A3.77,3.77,0,0,1,62,56.66c-.28,2.31-2.6,3.29-4.47,4.08Z"/></g><g id="path3737_0" data-name="path3737 0"><path class="cls-3" d="M50.17,62.64a22.29,22.29,0,0,0-7.44,1.14c.16-.08-.07-.88-.26-1.48s-.57-.84-.57-.84a28,28,0,0,1,16.58,0,1.33,1.33,0,0,0-.64.89c-.19.6-.35,1.36-.19,1.44A22.59,22.59,0,0,0,50.17,62.64Z"/><path class="cls-2" d="M57.65,63.88h0a22.6,22.6,0,0,0-7.44-1.14,22.48,22.48,0,0,0-7.4,1.14.09.09,0,0,1-.12,0,.1.1,0,0,1,0-.12s.06-.22-.31-1.37c-.21-.66-.51-.78-.51-.78a.09.09,0,0,1-.07-.08.1.1,0,0,1,.06-.09,26.22,26.22,0,0,1,8.32-1.27,26.27,26.27,0,0,1,8.33,1.25.09.09,0,0,1,.06.09.08.08,0,0,1-.06.08,1.37,1.37,0,0,0-.58.83,3,3,0,0,0-.23,1.35.09.09,0,0,1-.05.17ZM42.11,61.49a1.78,1.78,0,0,1,.45.78,5.66,5.66,0,0,1,.32,1.36,22.89,22.89,0,0,1,7.29-1.09h0a23.15,23.15,0,0,1,7.33,1.09,4.25,4.25,0,0,1,.25-1.32,1.74,1.74,0,0,1,.52-.84,28.25,28.25,0,0,0-16.16,0Z"/></g><g id="path3739_1" data-name="path3739 1"><path class="cls-3" d="M50.18,60.38a25.28,25.28,0,0,0-8.08,1.2.24.24,0,0,1-.33-.17.32.32,0,0,1,.17-.39,24.83,24.83,0,0,1,8.24-1.26A24.91,24.91,0,0,1,58.44,61a.32.32,0,0,1,.17.39.23.23,0,0,1-.32.17,25.52,25.52,0,0,0-8.11-1.2Z"/><path class="cls-2" d="M42,61.69a.4.4,0,0,1-.15,0,.35.35,0,0,1-.17-.22.42.42,0,0,1,.22-.51,25.13,25.13,0,0,1,8.28-1.26,25.52,25.52,0,0,1,8.3,1.26.42.42,0,0,1,.22.51.35.35,0,0,1-.17.22.34.34,0,0,1-.28,0,25.23,25.23,0,0,0-8.07-1.2,25.15,25.15,0,0,0-8,1.2A.3.3,0,0,1,42,61.69Zm8.18-1.83A24.66,24.66,0,0,0,42,61.11a.23.23,0,0,0-.11.28.14.14,0,0,0,.08.1.17.17,0,0,0,.12,0,24.81,24.81,0,0,1,8.12-1.21h0a24.85,24.85,0,0,1,8.14,1.21.17.17,0,0,0,.12,0,.14.14,0,0,0,.08-.1.23.23,0,0,0-.11-.28A24.83,24.83,0,0,0,50.18,59.86Z"/></g><g id="path3867_2" data-name="path3867 2"><path class="cls-3" d="M50.19,65.54a22.84,22.84,0,0,1-7.36-1.1.36.36,0,0,1-.2-.36.35.35,0,0,1,.2-.34,22.3,22.3,0,0,1,7.36-1.1,22.3,22.3,0,0,1,7.36,1.1.35.35,0,0,1,.2.34.38.38,0,0,1-.2.36,22.84,22.84,0,0,1-7.36,1.1Z"/><path class="cls-2" d="M50.19,65.63h0a22.33,22.33,0,0,1-7.39-1.11.49.49,0,0,1,0-.87,22.6,22.6,0,0,1,7.39-1.11,22.6,22.6,0,0,1,7.39,1.11.44.44,0,0,1,.26.43.43.43,0,0,1-.26.44A22.33,22.33,0,0,1,50.19,65.63Zm0-2.9a22.54,22.54,0,0,0-7.33,1.1.23.23,0,0,0-.13.25.26.26,0,0,0,.13.27,22.25,22.25,0,0,0,7.33,1.09,22.25,22.25,0,0,0,7.33-1.09.26.26,0,0,0,.13-.27.23.23,0,0,0-.13-.25A22.5,22.5,0,0,0,50.19,62.73Z"/></g><g id="path3869_3" data-name="path3869 3"><path class="cls-5" d="M50.18,65.08a23.85,23.85,0,0,1-6.79-.94,23.21,23.21,0,0,1,6.79-.92,23.36,23.36,0,0,1,6.81.92A24,24,0,0,1,50.18,65.08Z"/><path class="cls-2" d="M50.18,65.17h0a24.07,24.07,0,0,1-6.82-.94.11.11,0,0,1-.06-.09.1.1,0,0,1,.06-.09,25.55,25.55,0,0,1,13.66,0,.1.1,0,0,1,.06.09.11.11,0,0,1-.06.09A24.11,24.11,0,0,1,50.18,65.17Zm-6.46-1a25.34,25.34,0,0,0,12.94,0,25.63,25.63,0,0,0-12.94,0Z"/></g><g id="circle328"><circle cx="50.2" cy="81.37" r="17.29"/><path class="cls-6" d="M50.2,100.16A18.79,18.79,0,1,1,69,81.37,18.8,18.8,0,0,1,50.2,100.16Zm0-34.58A15.79,15.79,0,1,0,66,81.37,15.81,15.81,0,0,0,50.2,65.58Z"/></g><g id="path162"><path class="cls-3" d="M51.78,44.19a2.19,2.19,0,1,1-3.09,0l.11-.1a2.73,2.73,0,1,0,2.9,0l.08.07Z"/><path class="cls-2" d="M50.23,49.24A2.82,2.82,0,0,1,48.75,44a.09.09,0,1,1,.11.15l-.1.1a2.1,2.1,0,1,0,3,0l-.07-.07a.09.09,0,0,1,0-.13.08.08,0,0,1,.12,0,2.82,2.82,0,0,1-1.52,5.2Zm-2-4.49a2.6,2.6,0,0,0-.59,1.67,2.64,2.64,0,0,0,5.28,0,2.7,2.7,0,0,0-.56-1.63,2.38,2.38,0,0,1,.2,1,2.28,2.28,0,1,1-4.33-1Z"/></g><g id="polygon164"><polygon class="cls-3" points="50.25 45.52 51.05 44.94 50.75 45.88 51.55 46.47 50.56 46.47 50.25 47.41 49.94 46.47 48.95 46.47 49.75 45.88 49.45 44.94 50.25 45.52"/><path class="cls-2" d="M50.25,47.5a.09.09,0,0,1-.09-.06l-.29-.88H49a.1.1,0,0,1-.09-.06.09.09,0,0,1,0-.11l.74-.54L49.36,45a.09.09,0,0,1,0-.11.11.11,0,0,1,.11,0l.75.55.75-.55a.11.11,0,0,1,.11,0,.11.11,0,0,1,0,.11l-.28.88.74.54a.09.09,0,0,1,0,.11.11.11,0,0,1-.09.06h-.93l-.28.88A.09.09,0,0,1,50.25,47.5Zm-1-1.13h.7a.1.1,0,0,1,.09.07l.22.67.22-.67a.1.1,0,0,1,.09-.07h.7L50.69,46a.09.09,0,0,1,0-.11l.21-.67-.57.42a.11.11,0,0,1-.11,0l-.57-.42.22.67a.11.11,0,0,1,0,.11Z"/></g><g id="g166"><g id="polygon168"><polygon class="cls-5" points="50.48 61.74 50.67 62.39 50.12 61.99 49.53 62.37 49.77 61.73 49.22 61.32 49.92 61.33 50.17 60.69 50.36 61.34 51.06 61.35 50.48 61.74"/></g><g id="path170"><path class="cls-2" d="M50,61.36l-.09.06h-.7v-.19l.7,0Zm0,0,0,.06h-.07l.09-.06Zm.25-.7v.06l-.25.64-.17-.07.24-.64Zm-.18,0,.1-.25.08.26Zm.28.78-.09-.07-.19-.65.18-.05.19.65Zm0,0h-.07l0-.07.09.07Zm.75,0,0,0-.7,0v-.19l.7,0Zm0-.17h.3l-.25.16Zm-.67.51,0-.11.58-.39.1.16-.58.39Zm0,0,0-.07.06,0Zm.22.7,0,0-.19-.65.18-.05.19.65Zm.15-.1.07.26-.22-.16Zm-.7-.46h.11l.55.41-.11.15-.55-.41v-.15Zm0,0,.06,0,.05,0Zm-.62.43,0-.05.58-.38.11.15-.59.39Zm.14.11-.24.16.1-.27Zm.25-.79,0,.1-.24.64-.18-.06.24-.64Zm0,0,.05,0,0,.06Zm-.61-.44.06,0,.55.42-.12.14-.54-.41Zm0,.17-.23-.17h.28l0,.17Z"/></g></g><g id="g172"><g id="polygon174"><polygon class="cls-5" points="46.55 61.95 46.84 62.56 46.23 62.25 45.72 62.72 45.85 62.05 45.24 61.73 45.94 61.63 46.08 60.96 46.37 61.57 47.06 61.47 46.55 61.95"/></g><g id="path176"><path class="cls-2" d="M46,61.65l-.08.07-.69.11,0-.19.69-.1Zm0,0,0,.06H46Zm.13-.73V61l-.14.67-.18,0,.14-.67Zm-.17,0,0-.27.12.25Zm.39.72-.09,0L46,61l.17-.08.3.61Zm0,0h-.06l0-.06Zm.75-.12-.05,0-.7.1,0-.18.69-.1Zm-.08-.16.29,0-.21.2Zm-.58.61,0-.11L47,61.4l.13.14-.51.48Zm0,0,0-.06.05,0Zm.33.65,0,0L46.47,62l.17-.08.29.61Zm.13-.12.11.25-.24-.13Zm-.76-.34h.1l.61.31-.08.16-.61-.31Zm0,0,0,0,.05,0Zm-.55.53,0-.05.52-.48.12.14-.51.47Zm.16.08-.21.2,0-.28Zm.11-.82,0,.1-.13.67-.19,0,.14-.68Zm0,0L46,62l0,.07Zm-.66-.33h.06l.6.32-.08.16-.61-.31Zm0,.18L45,61.68l.28,0Z"/></g></g><g id="g178"><g id="polygon180"><polygon class="cls-5" points="53.87 61.91 53.58 62.52 54.19 62.21 54.71 62.68 54.57 62.01 55.18 61.69 54.49 61.59 54.35 60.92 54.05 61.52 53.36 61.43 53.87 61.91"/></g><g id="path182"><path class="cls-2" d="M54.4,61.61l.1-.11.69.1,0,.18-.7-.1Zm.07.07h-.06v-.06Zm-.21-.8.18,0,.14.67-.18,0-.14-.67Zm0,0,.12-.25.06.27Zm-.22.74L54,61.48l.29-.6.17.08-.29.61Zm.1,0,0,.06H54Zm-.84-.07.07-.16.7.09,0,.19-.69-.1Zm0,0-.22-.2.29,0ZM54,62l-.14,0-.51-.48.12-.14.51.48Zm0-.11,0,0L54,62Zm-.31.76-.12-.12.29-.61L54,62l-.28.61Zm0,0-.24.13.12-.25Zm.63-.46,0,.15-.61.31-.08-.16.61-.32Zm-.1,0,.06,0,0,0Zm.65.54-.16.09-.51-.48.12-.13.52.47Zm0,0,.05.28-.21-.19Zm-.27-.73.13.06.14.67-.18,0L54.48,62Zm-.05.1V62l.06,0Zm.71-.43,0,.17-.6.32-.09-.16.61-.32Zm0,0,.29,0-.26.13Z"/></g></g><g id="g184"><g id="path186"><path class="cls-5" d="M42.49,62.38l.18-.69.29.61.69-.09-.51.47.29.62L42.82,63l-.12.12Z"/></g><g id="path188"><path class="cls-2" d="M42.75,61.65v.07l-.17.68-.19,0,.18-.69Zm-.17,0,.06-.25.11.23Zm.39.73-.09-.06-.3-.6.17-.09.29.61Zm0,0h-.06l0-.07Zm.75-.12,0,0-.7.1,0-.19.69-.09Zm-.08-.16.29,0-.21.21Zm-.58.61,0-.11.51-.48.13.14-.51.47Zm0,0,0-.07,0,0Zm.33.65,0,0-.29-.61.17-.08.29.61Zm.13-.12.11.24-.24-.12Zm-.76-.34.1,0,.61.31-.08.17-.61-.31Zm0,0,.05-.05,0,0Zm-.15.2.18,0-.16,0h.13l.12.14h-.12l-.15,0Zm.15.05-.11.1,0-.15Zm-.36-.81h.18l.21.71-.18,0-.21-.71v0Zm0,0v0Z"/></g></g><g id="g190"><g id="path192"><path class="cls-5" d="M57.8,62.34l-.17-.69-.29.61-.7-.1.51.48-.29.61.62-.31.12.11Z"/></g><g id="path194"><path class="cls-2" d="M57.55,61.61l.17,0,.17.68-.18,0-.17-.69Zm0,0,.11-.23.06.25Zm-.23.74-.07-.13.3-.61.17.08-.3.61Zm.1-.05,0,.06h-.07Zm-.84-.07.08-.16.69.1,0,.18-.69-.1Zm0,0-.22-.2.3,0Zm.66.45-.15,0-.51-.48.13-.14.51.48Zm0-.11.05,0,0,.06Zm-.31.76-.13-.12.29-.61.17.08-.29.61Zm0,0-.25.13.12-.25Zm.63-.46,0,.15-.61.31-.09-.16.61-.32Zm-.11,0,.06,0,0,0Zm.26.23-.15,0h-.13l.13-.13h.12l-.15.05.18,0Zm0,0,0,.15-.11-.11Zm.2-.77v0l-.2.72-.18,0,.2-.72Zm0,0v0Z"/></g></g><g id="g196"><g id="polygon198"><polygon class="cls-5" points="50.71 55.66 50.99 56.62 50.17 56.02 49.3 56.59 49.66 55.64 48.84 55.03 49.88 55.05 50.25 54.1 50.53 55.06 51.57 55.08 50.71 55.66"/></g><g id="path200"><path class="cls-2" d="M50,55.08l-.09.06-1,0v-.18h1Zm0,0,0,.06h-.07l.09-.06Zm.37-1v.06l-.36.95L49.79,55l.37-.94Zm-.18,0,.1-.26.08.26Zm.37,1.08-.09-.06-.28-1,.18,0,.28,1Zm0,0h-.07l0-.06.09.06Zm1.09,0,0,0-1,0V55l1,0Zm0-.17h.3l-.25.16Zm-1,.7,0-.11.86-.58.1.16-.86.58Zm0,0,0-.07.06,0Zm.31,1,0-.05-.28-1,.18-.06.28,1Zm.15-.1.07.26-.22-.16Zm-1-.66h.1l.82.61-.11.15-.82-.6v-.16Zm0,0,.05,0,0,0Zm-.91.62,0-.05.87-.57.1.16-.87.57Zm.14.11-.24.16.1-.27Zm.36-1.1,0,.1-.35.95-.18-.06.36-1Zm0,0,.06,0,0,.06Zm-.86-.63,0,0,.81.61-.11.15-.81-.61Zm-.06.17-.23-.18h.29l-.06.17Z"/></g></g><g id="g202"><g id="polygon204"><polygon class="cls-5" points="50.52 58.7 50.71 59.34 50.16 58.94 49.57 59.33 49.81 58.68 49.27 58.27 49.97 58.28 50.21 57.64 50.41 58.29 51.1 58.3 50.52 58.7"/></g><g id="path206"><path class="cls-2" d="M50.05,58.31l-.09.06h-.7v-.18H50Zm0,0,0,.07H50l.09-.06Zm.25-.7v.06l-.25.64-.17-.06.24-.64Zm-.18,0,.1-.26.08.26Zm.28.77-.08-.06-.2-.65.18-.06.19.65Zm0,0h-.07v-.06l.08.06Zm.76,0-.06,0-.7,0V58.2h.7Zm0-.17h.29l-.24.16Zm-.68.51,0-.1.58-.39.11.15-.59.39Zm0,0,0-.06.06,0Zm.23.7,0-.05-.19-.65.18,0,.19.65Zm.14-.1.08.26-.22-.16Zm-.69-.46h.1l.56.41-.11.15L50.1,59v-.15Zm0,0,0,0,.05,0Zm-.62.43,0,0,.59-.39.1.16-.59.38Zm.13.11-.23.16.1-.27Zm.25-.79,0,.11-.24.64-.17-.07.24-.64Zm0,0,.06,0,0,.07Zm-.6-.43,0,0,.55.41-.11.15-.55-.41Zm-.06.17L49,58.17h.29l-.06.17Z"/></g></g><g id="g208"><g id="polygon210"><polygon class="cls-5" points="50.57 52.38 50.75 53.03 50.2 52.63 49.62 53.02 49.86 52.37 49.31 51.96 50.01 51.97 50.26 51.33 50.45 51.98 51.15 51.99 50.57 52.38"/></g><g id="path212"><path class="cls-2" d="M50.1,52l-.09.06h-.7v-.18H50Zm0,0,0,.06H50L50.1,52Zm.24-.7v.06L50.1,52l-.18-.06.25-.64Zm-.17,0,.1-.26.07.26Zm.28.77L50.36,52l-.19-.65.17-.06.2.65Zm0,0h-.07l0-.06.09.06Zm.75,0-.05,0-.7,0v-.18h.7Zm-.05-.17h.29l-.24.16Zm-.67.51,0-.1.59-.39.1.15-.58.39Zm0,0,0-.06,0,0Zm.22.7,0,0-.18-.65.18,0,.18.65Zm.14-.1.08.26-.22-.16Zm-.69-.46h.11l.55.41-.11.15-.55-.41v-.15Zm0,0,.05,0,.06,0Zm-.62.43,0,0,.58-.39.1.16-.58.38Zm.14.11-.24.16.1-.27Zm.24-.79,0,.11-.24.64L49.53,53l.24-.64Zm0,0,.06,0,0,.07Zm-.6-.43,0,0,.55.41-.11.15L49.25,52Zm-.06.17L49,51.86h.29l-.06.17Z"/></g></g><g id="g214"><g id="polygon216"><polygon class="cls-5" points="43.45 52.72 43.37 53.39 43.02 52.8 42.33 52.93 42.8 52.43 42.45 51.84 43.09 52.12 43.56 51.62 43.49 52.3 44.13 52.58 43.45 52.72"/></g><g id="path218"><path class="cls-2" d="M43.16,52.18l-.1,0-.65-.28.08-.17.64.27Zm0,0,0,0,0,0Zm.5-.55,0,.06-.47.49L43,52.06l.48-.5Zm-.16-.07.18-.2,0,.27Zm0,.82-.06-.09.07-.68.19,0-.07.67Zm0,0-.07,0v-.06Zm.69.29h0l-.64-.28.07-.17.64.28Zm0-.18.27.12-.29.06Zm-.81.21.07-.08.69-.13,0,.18-.68.14Zm0,0v-.06l.07,0Zm-.07.74v-.06l.08-.68.18,0-.07.67Zm.18,0,0,.27-.15-.23ZM43,52.71l.1,0,.35.59-.16.1-.35-.59Zm0,0h.06l0,0Zm-.74.16.05,0,.69-.13,0,.18-.69.14Zm.09.16-.28,0,.19-.21Zm.53-.65v.12l-.47.5-.14-.13.47-.5Zm0,0,0,.07,0,0Zm-.39-.62,0,0,.35.59-.16.1-.35-.59Zm-.12.13-.15-.25.27.12Z"/></g></g><g id="g220"><g id="polygon222"><polygon class="cls-5" points="44.26 58.56 44.6 59.14 43.97 58.88 43.49 59.39 43.57 58.71 42.94 58.44 43.63 58.28 43.72 57.6 44.05 58.19 44.74 58.04 44.26 58.56"/></g><g id="path224"><path class="cls-2" d="M43.72,58.3l-.07.07-.69.16,0-.18.69-.16Zm0,0v.06h-.06Zm.08-.74v.06l-.09.68-.19,0,.09-.68Zm-.18,0,0-.27.14.24Zm.46.69-.11,0-.33-.59.16-.09.34.58Zm0,0H44l0,0Zm.73-.17-.05,0-.68.15,0-.18.68-.15ZM44.72,58l.29-.06-.2.22Zm-.54.65,0-.11.47-.51.14.13-.48.51Zm0,0,0-.06.05,0Zm.38.63,0,0-.34-.59.17-.09.33.59Zm.12-.13.13.24-.25-.11Zm-.78-.29.1,0,.63.27-.07.17L43.93,59Zm0,0,0,0,.06,0Zm-.51.57,0-.05.48-.52.13.13-.47.51Zm.17.07-.2.21,0-.28Zm0-.83,0,.1-.08.68-.19,0,.09-.68Zm0,0,.06,0v.07Zm-.69-.27H43l.63.27-.08.17-.62-.27Zm0,.17-.27-.11.28-.06Z"/></g></g><g id="g226"><g id="polygon228"><polygon class="cls-5" points="42.95 55.79 43.2 56.53 42.54 56.09 41.89 56.55 42.14 55.81 41.49 55.36 42.29 55.34 42.55 54.59 42.8 55.33 43.6 55.32 42.95 55.79"/></g><g id="path230"><path class="cls-2" d="M42.38,55.37l-.08.06-.81,0v-.19h.8Zm0,0,0,.06H42.3l.08-.06Zm.26-.81v.06l-.26.75-.17-.06.25-.75Zm-.18,0,.09-.26.09.26Zm.34.86-.09-.06-.25-.74.18-.06.25.74Zm0,0h-.07l0-.06.09.06Zm.86,0,0,0H42.8v-.18l.8,0Zm-.06-.17h.3l-.24.17-.06-.17Zm-.74.6,0-.11.65-.47.11.15-.65.48Zm0,0,0-.07.06,0Zm.28.79,0,0-.25-.74.18-.06.25.74Zm.15-.11.08.26-.23-.15Zm-.8-.49h.11l.65.44-.11.16-.65-.45V56Zm0,0,0,0,.06,0Zm-.69.52,0-.05.66-.47.11.15-.66.47Zm.14.1-.23.17.09-.27Zm.25-.9,0,.11-.25.74-.18,0,.25-.75Zm0,0,.06,0,0,.07Zm-.7-.47,0,0,.65.45-.11.15-.65-.45Zm-.06.17-.23-.16h.29Z"/></g></g><g id="g232"><g id="polygon234"><polygon class="cls-5" points="38.27 54.56 38.23 54.93 38.03 54.61 37.65 54.68 37.91 54.4 37.71 54.07 38.07 54.23 38.33 53.95 38.29 54.32 38.65 54.48 38.27 54.56"/></g><g id="path236"><path class="cls-2" d="M38.14,54.29l-.11,0-.35-.15.07-.17.36.15Zm0,0,0,.05-.06,0Zm.29-.33,0,0-.26.28L38,54.16l.27-.27Zm-.16-.07.18-.2,0,.27Zm0,.52-.06-.1,0-.37.19,0,0,.37Zm0,0-.07,0v-.07Zm.41.16h-.06l-.35-.16.07-.17.36.16Zm0-.17.27.11-.29.06Zm-.51.15.07-.08.38-.08,0,.18-.38.08Zm0,0v-.07h.07Zm0,.43,0-.06,0-.37.18,0,0,.37Zm.17,0,0,.28L38.15,55ZM38,54.51l.1.05.2.32-.16.1-.2-.33Zm0,0h.07l0,.06Zm-.43.11.05,0,.38-.08,0,.19-.39.07Zm.08.15-.28.06.2-.21Zm.33-.42,0,.11-.26.28-.13-.12.26-.28Zm0,0,0,.06-.05.05ZM37.75,54l0,0,.2.33-.16.1-.2-.33Zm-.12.13-.14-.25.26.12Z"/></g></g><g id="g238"><g id="polygon240"><polygon class="cls-5" points="39.7 59.53 40.02 59.73 39.64 59.77 39.53 60.14 39.4 59.79 39.02 59.82 39.31 59.56 39.18 59.2 39.5 59.4 39.8 59.15 39.7 59.53"/></g><g id="path242"><path class="cls-2" d="M39.4,59.53l0,.1-.3.26L39,59.75l.29-.26Zm0,0,0,.06,0,0Zm-.17-.4,0,0,.13.36-.17.06-.14-.35Zm-.14.11L39,59l.23.15Zm.47.24h-.11l-.32-.2.1-.15.32.2Zm0,0-.05,0-.06,0Zm.33-.3,0,0-.3.26-.12-.15.3-.25Zm-.15-.1.22-.19-.07.29Zm-.09.53,0-.1.1-.38.18,0-.1.37Zm0,0-.06,0,0-.06Zm.38.22-.06,0-.32-.2.1-.16.32.2Zm0-.18.23.15-.27,0Zm-.52.09.08-.07.38,0,0,.19-.39,0Zm0,0v-.06h.07Zm-.1.44v-.06l.11-.38.18,0-.11.38Zm.17,0-.07.27-.1-.26Zm-.23-.48.1.06.13.36-.17.07-.14-.36Zm0,0h.07l0,.06Zm-.43.06,0,0,.38,0,0,.19-.38,0Zm.07.16-.29,0,.22-.18Z"/></g></g><g id="g244"><g id="polygon246"><polygon class="cls-5" points="37.9 57.17 38.12 57.6 37.67 57.4 37.32 57.75 37.4 57.27 36.95 57.05 37.45 56.96 37.53 56.48 37.76 56.91 38.25 56.82 37.9 57.17"/></g><g id="path248"><path class="cls-2" d="M37.54,57l-.08.07-.49.09,0-.18.49-.09Zm0,0V57h-.07Zm.07-.55v.06l-.08.49-.18,0,.08-.49Zm-.17,0,0-.27.13.24Zm.33.54-.1,0-.22-.43.16-.09.23.43Zm0,0h-.06l0-.06Zm.55-.12,0,0-.5.09,0-.19.49-.08Zm-.09-.15.3,0-.21.2Zm-.42.49,0-.11.36-.36.13.13-.36.36Zm0,0,0-.06,0,0Zm.27.47,0,0-.23-.43.17-.09.22.43Zm.12-.13.13.25-.25-.12Zm-.59-.23.1,0,.45.21-.08.17-.44-.21Zm0,0,0,0,.05,0Zm-.38.41,0-.06.36-.35.13.13-.36.36Zm.15.08-.2.2,0-.28Zm.06-.64.05.1-.08.48-.18,0,.07-.49Zm0,0,.06,0v.07Zm-.5-.22H37l.45.21-.08.17-.45-.21Zm0,.18L36.65,57l.29,0Z"/></g></g><g id="g250"><g id="polygon252"><polygon class="cls-5" points="56.96 52.67 57.03 53.34 57.39 52.76 58.08 52.89 57.61 52.39 57.96 51.8 57.31 52.08 56.84 51.58 56.91 52.25 56.27 52.53 56.96 52.67"/></g><g id="path254"><path class="cls-2" d="M57.25,52.14l0-.15.64-.28.07.17-.64.28Zm.1,0-.06,0,0,0Zm-.6-.57.16-.08.47.5-.13.13-.48-.5Zm0,0,0-.27.19.19Zm.2.75-.13-.08-.07-.67.19,0,.07.67Zm.06-.1v.07l-.06,0Zm-.76.39,0-.18.64-.28.08.17-.64.28Zm0,0L56,52.57l.27-.12Zm.8,0-.11.1-.69-.13,0-.19.69.14ZM57,52.58H57v.07Zm.13.81-.17,0-.07-.67.18,0,.08.67Zm0,0-.14.24,0-.28Zm.3-.72.06.14-.36.58L57,53.3l.36-.59Zm-.1,0,0-.06.07,0Zm.83.12-.08.15-.69-.13,0-.18.68.13Zm0,0,.2.21L58.06,53Zm-.61-.49h.15l.46.5L58,53l-.47-.5Zm0,.11,0-.05,0-.06Zm.38-.74.12.14-.35.59-.16-.1.35-.59Zm0,0,.26-.11-.14.25Z"/></g></g><g id="g256"><g id="polygon258"><polygon class="cls-5" points="56.14 58.51 55.81 59.1 56.44 58.83 56.92 59.35 56.83 58.67 57.46 58.39 56.78 58.24 56.69 57.56 56.35 58.15 55.67 58 56.14 58.51"/></g><g id="path260"><path class="cls-2" d="M56.69,58.25l.11-.1.68.15,0,.18-.68-.15Zm.07.08H56.7v-.07Zm-.15-.82.17,0,.09.68-.18,0-.09-.68Zm0,0,.14-.23,0,.27Zm-.28.73-.06-.14.34-.59.16.1-.34.58Zm.1-.05,0,.06h-.07Zm-.83-.13.09-.15.68.14,0,.19-.68-.15Zm0,0-.2-.21.29.06Zm.62.5-.15,0-.47-.52.14-.12.47.51Zm0-.11,0,0,0,.06Zm-.37.74-.11-.13.33-.59.16.09-.33.59Zm0,0-.25.1.14-.23Zm.67-.42,0,.15-.64.27L55.77,59l.63-.27Zm-.11,0,.06,0,0,.05Zm.61.58-.16.08-.48-.51.14-.13.48.51Zm0,0,0,.29-.2-.21Zm-.21-.75.13.07.08.68-.18,0-.09-.68Zm-.06.1v-.07l.07,0Zm.74-.38,0,.18-.63.27-.07-.17.63-.27Zm0,0,.28.06-.26.12Z"/></g></g><g id="g262"><g id="polygon264"><polygon class="cls-5" points="57.45 55.75 57.21 56.49 57.86 56.04 58.52 56.51 58.27 55.76 58.92 55.31 58.11 55.3 57.86 54.55 57.61 55.29 56.8 55.27 57.45 55.75"/></g><g id="path266"><path class="cls-2" d="M58,55.33l.1-.13.8,0v.19l-.81,0L58,55.33Zm.09.06h-.06l0-.06.09.06Zm-.34-.87H58l.25.75-.18.06-.25-.75Zm0,0,.09-.26.09.26Zm-.16.86-.09-.12.25-.74.18.06-.25.74Zm.09-.06,0,.06h-.06l.09-.06Zm-1,0,0-.17h.81v.19H56.8l0,0Zm0,0-.24-.17h.29l0,.17Zm.79.43-.14,0-.65-.47.11-.15.65.47Zm0-.11.05,0,0,.07Zm-.25.89-.14-.1.25-.74.17.06-.24.74Zm0,0-.23.16.09-.26Zm.66-.59v.15l-.66.44-.1-.15.65-.44Zm-.11,0,0,0,.06,0Zm.8.51-.15.11-.65-.47.11-.15.65.47Zm0,0,.09.28-.24-.17Zm-.39-.79.14,0,.25.75-.18.06-.25-.75Zm0,.1,0-.06.06,0Zm.74-.57,0,.17-.65.45-.1-.15.65-.45Zm0,0h.29l-.24.16Z"/></g></g><g id="g268"><g id="polygon270"><polygon class="cls-5" points="62.14 54.52 62.18 54.89 62.38 54.56 62.76 54.64 62.5 54.36 62.69 54.03 62.34 54.18 62.07 53.91 62.11 54.28 61.76 54.44 62.14 54.52"/></g><g id="path272"><path class="cls-2" d="M62.27,54.25l0-.15.36-.16.07.17-.36.16Zm.1,0-.06,0,0,0ZM62,53.92l.16-.08.26.28-.13.13L62,54Zm0,0,0-.28.19.2Zm.17.45L62,54.29l0-.37.19,0,0,.37Zm.05-.1v.07l-.06,0Zm-.46.26,0-.18.35-.15.08.17-.36.15Zm0,0-.29-.06.27-.12Zm.49,0-.11.11-.38-.08,0-.18.39.07Zm-.07-.08.06,0v.06Zm.1.52-.17,0L62,54.52l.19,0,0,.38Zm0,0-.14.23,0-.27Zm.13-.47.07.14-.2.33-.16-.1.2-.33Zm-.09,0,0,0h.06Zm.53.06-.09.16-.38-.08,0-.18.39.07Zm0,0,.19.21-.28-.05Zm-.41-.26.15,0,.26.28-.14.13-.26-.28Zm0,.11,0-.05,0-.06Zm.23-.48.11.14-.19.33-.16-.1.19-.33Zm0,0,.26-.11-.15.25Z"/></g></g><g id="g274"><g id="polygon276"><polygon class="cls-5" points="60.71 59.49 60.39 59.69 60.77 59.72 60.87 60.1 61.01 59.74 61.39 59.77 61.09 59.52 61.23 59.16 60.91 59.36 60.61 59.11 60.71 59.49"/></g><g id="path278"><path class="cls-2" d="M61,59.49l.15,0,.3.25-.12.14-.3-.25Zm0,.1-.05,0,0-.06Zm.15-.51.13.11-.13.36L61,59.49l.14-.36Zm0,0,.23-.14-.1.25Zm-.33.35v-.15l.32-.2.09.16-.31.2Zm.11,0-.06,0,0,0Zm-.44-.31.15-.09.3.25-.12.14-.3-.25Zm0,0-.08-.28.23.19Zm.24.44-.14-.06-.1-.38.18,0,.1.37Zm0-.11v.07l-.05,0Zm-.42.32,0-.17.32-.2.1.16-.32.2Zm0,0-.27,0,.23-.15Zm.48-.08-.1.12-.38,0,0-.18.38,0Zm-.08-.07h.06l0,.06Zm.18.5h-.18l-.1-.37.18,0,.1.38v.05Zm0,0-.1.27-.08-.28Zm0-.48.08.13-.13.35-.18-.06.14-.36Zm-.09.06,0-.07H61Zm.53,0-.07.17-.38,0v-.19l.39,0Zm0,0,.22.19-.29,0Z"/></g></g><g id="g280"><g id="polygon282"><polygon class="cls-5" points="62.51 57.13 62.29 57.56 62.73 57.35 63.09 57.71 63.01 57.22 63.45 57.01 62.96 56.92 62.88 56.43 62.65 56.86 62.16 56.78 62.51 57.13"/></g><g id="path284"><path class="cls-2" d="M62.87,56.93l.11-.1.49.09,0,.18-.5-.09Zm.07.08h-.06v-.07Zm-.15-.62.18,0,.08.48-.18,0-.09-.48Zm0,0,.13-.24,0,.27Zm-.16.56-.06-.13.22-.43.17.09-.23.43Zm.1,0,0,.06-.07,0Zm-.64-.07.08-.16.5.09,0,.18-.49-.08Zm0,0-.21-.21.29,0Zm.5.33-.15,0-.35-.36.13-.13.36.36Zm0-.1,0,0,0,.06Zm-.25.58-.13-.13.23-.43.16.08-.22.43Zm0,0-.25.11.12-.24Zm.47-.36,0,.15-.44.21-.08-.17.44-.21Zm-.11,0,.06,0,0,0Zm.49.42-.16.08-.35-.35.13-.13.35.35Zm0,0,0,.29L63,57.77ZM63,57.14l.13.07.08.48-.18,0-.08-.48Zm0,.1v-.07l.06,0Zm.55-.32,0,.17-.44.22L63,57.14l.44-.21Zm0,0,.28,0-.26.12Z"/></g></g><g id="g288"><g id="path290"><path class="cls-3" d="M21.06,107.46c1.65,2.8,4.53.19,2.62-1.72a2.55,2.55,0,0,0-2.84-.49c-3,.81-4.65,5.91-1.19,9.38a7.28,7.28,0,0,0,5.92,2.06c-1.57,1.29-1.52,3.86,1.7,3.68a1.88,1.88,0,0,1,1.56-3.08l2.14,0a6.39,6.39,0,0,0-.09-3.54l-4.18.18c-4.24.17-6.93-2.62-5.64-6.44Z"/><path class="cls-2" d="M27,120.47c-1.65,0-2.19-.74-2.38-1.21a2.38,2.38,0,0,1,.72-2.45,7.43,7.43,0,0,1-5.71-2.11,6.37,6.37,0,0,1-1.76-6.16,4.59,4.59,0,0,1,3-3.38,2.66,2.66,0,0,1,2.93.51,1.9,1.9,0,0,1,.57,2,1.63,1.63,0,0,1-1.37,1.08,2.05,2.05,0,0,1-1.85-1.09,4.55,4.55,0,0,0,.55,4.15,5.85,5.85,0,0,0,5.05,2l4.18-.17a.1.1,0,0,1,.1.07,6.39,6.39,0,0,1,.09,3.59.11.11,0,0,1-.09.06l-.84,0h-1.3a1.8,1.8,0,0,0-1.71,1,1.83,1.83,0,0,0,.23,2,.12.12,0,0,1,0,.1s-.05,0-.08.06Zm-1.39-3.88a.09.09,0,0,1,.09.06.08.08,0,0,1,0,.11,2.25,2.25,0,0,0-.87,2.43c.29.74,1.11,1.13,2.34,1.1a2,2,0,0,1-.15-2,2,2,0,0,1,1.85-1.09h0c.36,0,.83,0,1.29,0l.78,0a6.07,6.07,0,0,0-.1-3.34l-4.1.17a6,6,0,0,1-5.21-2,4.75,4.75,0,0,1-.51-4.51.09.09,0,0,1,.07-.06s.08,0,.09,0c.66,1.11,1.4,1.21,1.78,1.18a1.45,1.45,0,0,0,1.21-1,1.73,1.73,0,0,0-.52-1.83,2.5,2.5,0,0,0-2.75-.46A4.39,4.39,0,0,0,18,108.59a6.19,6.19,0,0,0,1.71,6,7.22,7.22,0,0,0,5.84,2Z"/></g><g id="path292"><path class="cls-3" d="M12.45,42.77a10.72,10.72,0,0,1,8,1.21c3.15,1.89,5.17,5.86,4.36,8.55-.51,1.66-2.35,3.52-5,2,1.12-.25,2.15-.91,2.12-3.44-1.26.94-4.31,2.45-5.68-1.33,3.48,1,5.29-4.11,0-4.24C10.63,45.36,7.9,51.32,10,56.35c1.91-.31,2.39-1,3.42-2.64,2,3-.48,7.73-1.34,9.12,1.75-.19,3.54-2.18,4-3.82.26-1,2.13,5.23-1.2,9.3a3.14,3.14,0,0,0,3.08-2.15c.1,1.48.46,2.91-1.27,7.09,2.22-2.59,4.94-.42,3.51,2-.14-.41-.56-1-1-.8s-.79,1,.05,2.61c3,5.87,6.93,11.94,6.79,18.33-.11,4.91-2.29,10.15-7.77,10.45-3.1.17-6.47-1-7.57-3.43C9,98.67,6.76,99.12,6,99.59a3.42,3.42,0,0,1,2.7-3.12c1.74-.34,3.41,1.6,3.4,1.42-.16-2.34,3.73-3.47,4.89-.22-4.8,2.4-2,6.61,1.36,6.54,1.77,0,3.36-1.25,2.69-3-.52-1.38-2.25-2.39-1.75-4.8.61.74,2.55,2.11,3.63,1.93-.09-2.15-4.35-2.8-5.25-5.64-.51-1.59,0-3.46.28-3.13C19,91,21.79,93.14,22.58,93.05c-.27-1.22-2-6-7.77-11.1C8.09,76.06.1,66.92.1,58.82-.12,52.81,4,44.69,12.45,42.77Z"/><path class="cls-2" d="M17.72,106c-2.74,0-6-1.06-7.1-3.5a5.06,5.06,0,0,0-2.75-3A2.3,2.3,0,0,0,6,99.67a.09.09,0,0,1-.1,0,.1.1,0,0,1,0-.09,3.55,3.55,0,0,1,2.77-3.21c1.38-.27,2.68.82,3.23,1.29l.09.07a2.27,2.27,0,0,1,1.9-2.12,2.76,2.76,0,0,1,3.18,2,.11.11,0,0,1-.05.12c-1.9.95-2.78,2.31-2.43,3.74a3.8,3.8,0,0,0,3.75,2.62A3,3,0,0,0,20.79,103a1.88,1.88,0,0,0,.15-1.78,5.4,5.4,0,0,0-.72-1.23,4.23,4.23,0,0,1-1-3.63.08.08,0,0,1,.07-.07.1.1,0,0,1,.1,0c.59.73,2.41,2,3.45,1.91-.09-1-1.08-1.61-2.21-2.36s-2.56-1.69-3-3.17-.11-3.09.23-3.27a.17.17,0,0,1,.22.06c1.07,1.41,3.6,3.37,4.45,3.49-.22-.83-1.68-5.64-7.72-10.93C10.32,78.14,0,68.1,0,58.82c-.24-6.49,4.34-14.3,12.42-16.14a10.85,10.85,0,0,1,8.05,1.22c3.16,1.9,5.22,6,4.39,8.65A3.82,3.82,0,0,1,22.76,55a3.4,3.4,0,0,1-3-.39.11.11,0,0,1-.05-.09.11.11,0,0,1,.08-.08c1-.23,2-.78,2-3.16a4.47,4.47,0,0,1-3.55.9,3.48,3.48,0,0,1-2.11-2.39.08.08,0,0,1,0-.1.09.09,0,0,1,.09,0A2.57,2.57,0,0,0,19,48.94,1.84,1.84,0,0,0,19.36,47c-.23-.5-.92-1.35-3.07-1.41a6.32,6.32,0,0,0-5.57,2.78,8.39,8.39,0,0,0-.64,7.87c1.79-.31,2.25-.91,3.28-2.59a.08.08,0,0,1,.07,0s.07,0,.08,0c2.05,3.09-.58,8-1.23,9.05A5.46,5.46,0,0,0,16,59c0-.12.08-.18.16-.19s.19.1.24.19A10.41,10.41,0,0,1,15,68.23a3.09,3.09,0,0,0,2.8-2.1.1.1,0,0,1,.1-.06.09.09,0,0,1,.08.09c0,.14,0,.28,0,.43.11,1.3.24,2.78-1.12,6.24a2.3,2.3,0,0,1,2.94-.51,2.17,2.17,0,0,1,.37,3,.08.08,0,0,1-.09,0,.09.09,0,0,1-.08-.06,1.32,1.32,0,0,0-.59-.77.26.26,0,0,0-.23,0c-.6.36-.57,1.22.09,2.49.47.93,1,1.87,1.47,2.79,2.68,5,5.45,10.18,5.32,15.58-.11,4.9-2.23,10.23-7.85,10.54ZM7.17,99.19a2.52,2.52,0,0,1,.75.11c1.12.34,2.09,1.37,2.87,3.08,1.12,2.42,4.61,3.53,7.49,3.38,5.49-.31,7.57-5.55,7.67-10.36.13-5.36-2.63-10.51-5.29-15.49-.5-.92-1-1.87-1.48-2.79-.89-1.74-.5-2.45,0-2.74a.47.47,0,0,1,.4,0,1.37,1.37,0,0,1,.62.69,1.92,1.92,0,0,0-.41-2.56c-.72-.52-1.93-.46-3,.83a.1.1,0,0,1-.16-.1c1.54-3.75,1.41-5.26,1.29-6.6v-.07a3.24,3.24,0,0,1-3,1.87.11.11,0,0,1-.07-.06.09.09,0,0,1,0-.1,10.25,10.25,0,0,0,1.73-8.15A3.41,3.41,0,0,0,16.15,59v0c-.41,1.68-2.22,3.69-4,3.89a.09.09,0,0,1-.09,0,.09.09,0,0,1,0-.1c.36-.58,3.38-5.68,1.42-8.89-1,1.58-1.5,2.25-3.41,2.56a.11.11,0,0,1-.1-.06,8.61,8.61,0,0,1,.63-8.11,6.51,6.51,0,0,1,5.73-2.87c2.25.06,3,1,3.24,1.53a2,2,0,0,1-.39,2.13,2.71,2.71,0,0,1-2.73.81A3.19,3.19,0,0,0,18.35,52c1.46.44,3.07-.64,3.53-1a.12.12,0,0,1,.1,0,.1.1,0,0,1,.05.08c0,2.49-1,3.2-2,3.48a3.08,3.08,0,0,0,2.62.25,3.62,3.62,0,0,0,2-2.31c.8-2.63-1.22-6.58-4.32-8.44a10.63,10.63,0,0,0-7.91-1.2l0-.09,0,.09C4.49,44.68,0,52.4.2,58.81.2,68,10.46,78,14.88,81.88c6.53,5.74,7.75,10.93,7.8,11.15a.12.12,0,0,1,0,.08.08.08,0,0,1-.07,0c-.85.09-3.62-2.11-4.72-3.56a4.32,4.32,0,0,0-.12,3c.45,1.41,1.78,2.29,2.95,3.06S23,97.18,23,98.29a.1.1,0,0,1-.08.09c-1,.17-2.84-1-3.59-1.82a4,4,0,0,0,1,3.3,6.21,6.21,0,0,1,.75,1.27,2.05,2.05,0,0,1-.18,2,3.22,3.22,0,0,1-2.6,1.22,4,4,0,0,1-3.93-2.77c-.37-1.5.52-2.92,2.45-3.91a2.54,2.54,0,0,0-2.93-1.83,2,2,0,0,0-1.75,2.09.12.12,0,0,1-.06.1c-.07,0-.11,0-.34-.19-.53-.45-1.78-1.49-3.07-1.24a3.33,3.33,0,0,0-2.6,2.86A2.52,2.52,0,0,1,7.17,99.19Z"/></g><g id="path294"><path class="cls-3" d="M37.29,36.13c1.1,1.59.07,3.12-1.48,2.77-4.48-1-6.72-4.83-11.36-4.87-2.64,0-6.11,1.35-6.11,5.83,0,2.41,2.05,4.81,3.83,4.79a1.94,1.94,0,0,0,2.15-1.85c0-.82-.54-1.8-1.47-1.78-1.3,0-1.25,1-1,1.32-1.58.61-3.22-5.15,3.37-5A13.9,13.9,0,0,1,32,40.05a6.89,6.89,0,0,1,2.55,3.38c.39,1.83-.83,3.82-2.71,2,1,.43,1.73-.07,1.71-.94a1.76,1.76,0,0,0-1.83-1.82c-3,0-2.31,5,1.65,5s4.7-3.16,3.73-6.13c1.53.77,1.77,3,1,4.35,1.38-.15,4.09-4,.62-5.93,2-1.29,1.87-4-1.49-3.81Z"/><path class="cls-2" d="M33.47,47.74H33.4a3.4,3.4,0,0,1-3.6-3.2,1.94,1.94,0,1,1,3.88-.07,1.15,1.15,0,0,1-.45,1,1.24,1.24,0,0,1-1,.16,1.37,1.37,0,0,0,1.5.29,2.35,2.35,0,0,0,.73-2.48A6.62,6.62,0,0,0,32,40.13a13.9,13.9,0,0,0-6.76-2.67c-3.09-.09-4.12,1.17-4.45,1.92A2.55,2.55,0,0,0,21.08,42a.78.78,0,0,0,.63.27.92.92,0,0,1,0-.75c.09-.23.37-.6,1.16-.62a1.32,1.32,0,0,1,1,.4,2.13,2.13,0,0,1,.59,1.48,2,2,0,0,1-2.24,1.94h0a3.29,3.29,0,0,1-2.24-1.09,5.57,5.57,0,0,1-1.66-3.79,5.7,5.7,0,0,1,1.58-4.23,6.67,6.67,0,0,1,4.63-1.7c2.6,0,4.42,1.21,6.35,2.46a15.26,15.26,0,0,0,5,2.42,1.47,1.47,0,0,0,1.59-.54,1.88,1.88,0,0,0-.21-2.09.1.1,0,0,1,0-.09.16.16,0,0,1,.08-.06c1.5-.08,2.53.41,2.83,1.32A2.44,2.44,0,0,1,39,39.94a2.93,2.93,0,0,1,1.55,3.23C40.2,44.61,39,45.88,38.17,46a.08.08,0,0,1-.09,0,.1.1,0,0,1,0-.09,3.54,3.54,0,0,0,.26-2.68,2.56,2.56,0,0,0-1-1.43,5.26,5.26,0,0,1-.45,4.56A4,4,0,0,1,33.47,47.74Zm-1.69-5h0A1.7,1.7,0,0,0,30,44.54a3.24,3.24,0,0,0,3.43,3,3.85,3.85,0,0,0,3.29-1.39,5.24,5.24,0,0,0,.36-4.62s0-.07,0-.1a.11.11,0,0,1,.11,0,2.67,2.67,0,0,1,1.32,1.65,3.82,3.82,0,0,1-.18,2.65,3.78,3.78,0,0,0,2-2.61A2.73,2.73,0,0,0,38.73,40a.08.08,0,0,1,0-.08.12.12,0,0,1,0-.08,2.28,2.28,0,0,0,1.21-2.45c-.26-.8-1.16-1.23-2.48-1.2a2,2,0,0,1,.12,2.16,1.65,1.65,0,0,1-1.78.62,15.24,15.24,0,0,1-5.09-2.45c-1.91-1.23-3.7-2.4-6.25-2.42A6.45,6.45,0,0,0,20,35.77a5.52,5.52,0,0,0-1.52,4.09A5.35,5.35,0,0,0,20,43.52a3.13,3.13,0,0,0,2.14,1c1.23,0,2.06-.73,2-1.76a2,2,0,0,0-.53-1.35,1.19,1.19,0,0,0-.84-.34c-.65,0-.89.28-1,.5a.7.7,0,0,0,.07.67.09.09,0,0,1,0,.15.85.85,0,0,1-.95-.28,2.71,2.71,0,0,1-.34-2.84c.35-.8,1.43-2.13,4.63-2A14.14,14.14,0,0,1,32.1,40a7,7,0,0,1,2.58,3.43,2.52,2.52,0,0,1-.82,2.68c-.34.19-1,.36-2.05-.61a.08.08,0,0,1,0-.11.08.08,0,0,1,.11,0,1.28,1.28,0,0,0,1.21,0,.93.93,0,0,0,.37-.85A1.67,1.67,0,0,0,31.78,42.75Z"/></g></g><g id="g296"><g id="path298"><path class="cls-3" d="M78.68,107.48c-1.65,2.8-4.53.19-2.61-1.72a2.55,2.55,0,0,1,2.84-.49c3,.81,4.64,5.91,1.18,9.38a7.27,7.27,0,0,1-5.92,2.06c1.58,1.29,1.52,3.86-1.7,3.68a1.88,1.88,0,0,0-1.55-3.08l-2.14,0a6.21,6.21,0,0,1,.09-3.54l4.18.17c4.24.18,6.92-2.61,5.63-6.43Z"/><path class="cls-2" d="M72.79,120.49h-.33a.1.1,0,0,1-.08,0,.1.1,0,0,1,0-.1,1.84,1.84,0,0,0,.22-2,1.77,1.77,0,0,0-1.7-1l-1.3,0h-.84a.1.1,0,0,1-.09-.06,6.3,6.3,0,0,1,.08-3.59.11.11,0,0,1,.1-.07l4.18.17a5.84,5.84,0,0,0,5-2,4.52,4.52,0,0,0,.55-4.15,2,2,0,0,1-1.85,1.09,1.62,1.62,0,0,1-1.36-1.08,1.9,1.9,0,0,1,.56-2,2.66,2.66,0,0,1,2.93-.51,4.57,4.57,0,0,1,3,3.38,6.36,6.36,0,0,1-1.75,6.16,7.46,7.46,0,0,1-5.71,2.11,2.36,2.36,0,0,1,.71,2.45C75,119.74,74.43,120.49,72.79,120.49Zm-.14-.19c1.22,0,2-.35,2.33-1.09a2.25,2.25,0,0,0-.87-2.43.11.11,0,0,1,0-.11.11.11,0,0,1,.1-.06,7.24,7.24,0,0,0,5.85-2,6.18,6.18,0,0,0,1.7-6,4.39,4.39,0,0,0-2.85-3.24,2.48,2.48,0,0,0-2.75.46,1.73,1.73,0,0,0-.52,1.83,1.46,1.46,0,0,0,1.21,1c.39,0,1.13-.07,1.78-1.18a.08.08,0,0,1,.09,0,.09.09,0,0,1,.08.06,4.78,4.78,0,0,1-.52,4.51A6,6,0,0,1,73,114l-4.1-.17a6.06,6.06,0,0,0-.09,3.34l.77,0c.46,0,.94,0,1.3,0a2,2,0,0,1,1.87,1.09A2,2,0,0,1,72.65,120.3Z"/></g><g id="path300"><path class="cls-3" d="M87.29,42.79a10.74,10.74,0,0,0-8,1.21c-3.14,1.89-5.17,5.86-4.35,8.55.5,1.66,2.34,3.52,5,2-1.13-.25-2.16-.91-2.12-3.44,1.26.94,4.31,2.45,5.67-1.33-3.48.95-5.29-4.11,0-4.24,5.65-.15,8.38,5.81,6.27,10.84-1.92-.31-2.4-1-3.42-2.64-2,3,.48,7.72,1.33,9.12-1.75-.2-3.54-2.18-4-3.82-.26-1.05-2.12,5.23,1.2,9.3a3.15,3.15,0,0,1-3.08-2.15c-.1,1.48-.45,2.91,1.27,7.09-2.22-2.59-4.94-.42-3.51,2,.15-.41.56-1,1-.8s.79,1,0,2.61C77.46,83,73.55,89,73.7,95.42c.11,4.91,2.28,10.15,7.76,10.45,3.1.17,6.48-1,7.57-3.43,1.73-3.76,4-3.3,4.72-2.83a3.42,3.42,0,0,0-2.69-3.12c-1.75-.34-3.41,1.6-3.4,1.42.16-2.34-3.74-3.47-4.9-.22,4.8,2.4,2,6.61-1.36,6.54-1.77,0-3.36-1.25-2.69-3,.52-1.38,2.26-2.39,1.75-4.8-.6.74-2.54,2.1-3.63,1.93.09-2.15,4.35-2.8,5.26-5.64.5-1.59,0-3.46-.29-3.13C80.72,91,78,93.15,77.16,93.07c.27-1.22,2-6,7.77-11.1,6.73-5.89,14.71-15,14.71-23.14C99.86,52.83,95.71,44.71,87.29,42.79Z"/><path class="cls-2" d="M82,106l-.56,0c-5.62-.31-7.75-5.65-7.86-10.54-.12-5.4,2.65-10.58,5.32-15.58.49-.92,1-1.87,1.48-2.79.65-1.27.68-2.13.08-2.49a.26.26,0,0,0-.23,0,1.36,1.36,0,0,0-.59.77.09.09,0,0,1-.08.06.1.1,0,0,1-.09-.05,2.17,2.17,0,0,1,.37-3,2.3,2.3,0,0,1,3,.51c-1.37-3.47-1.24-4.94-1.12-6.24l0-.44s0-.07.08-.08a.08.08,0,0,1,.1.06,3.08,3.08,0,0,0,2.8,2.09A10.37,10.37,0,0,1,83.39,59c0-.09.12-.2.24-.19s.13.07.15.19a5.47,5.47,0,0,0,3.68,3.72c-.64-1.1-3.27-6-1.23-9a.09.09,0,0,1,.08,0,.12.12,0,0,1,.08,0c1,1.67,1.48,2.28,3.28,2.59A8.42,8.42,0,0,0,89,48.4a6.33,6.33,0,0,0-5.57-2.78c-2.15.05-2.85.91-3.07,1.41A1.82,1.82,0,0,0,80.74,49a2.59,2.59,0,0,0,2.72.72.1.1,0,0,1,.09,0,.12.12,0,0,1,0,.1,3.49,3.49,0,0,1-2.12,2.39,4.55,4.55,0,0,1-3.55-.9c0,2.38,1,2.93,2,3.16a.1.1,0,0,1,.07.08.08.08,0,0,1,0,.09A3.38,3.38,0,0,1,77,55a3.84,3.84,0,0,1-2.12-2.44c-.82-2.7,1.23-6.75,4.39-8.65a10.85,10.85,0,0,1,8-1.22c8.08,1.84,12.66,9.65,12.42,16.14C99.73,68.12,89.42,78.16,85,82c-6,5.3-7.5,10.11-7.71,10.93.85-.11,3.38-2.08,4.44-3.49a.18.18,0,0,1,.22,0c.34.17.68,1.87.24,3.27s-1.84,2.38-3,3.17-2.12,1.4-2.21,2.36c1,.08,2.87-1.19,3.46-1.91a.11.11,0,0,1,.09,0,.1.1,0,0,1,.07.08,4.22,4.22,0,0,1-1,3.63,5.79,5.79,0,0,0-.73,1.22A1.87,1.87,0,0,0,79,103a3,3,0,0,0,2.45,1.14,3.82,3.82,0,0,0,3.75-2.62c.35-1.43-.54-2.8-2.44-3.74a.09.09,0,0,1,0-.12,2.74,2.74,0,0,1,3.18-2,2.29,2.29,0,0,1,1.9,2.12l.08-.08c.55-.46,1.85-1.55,3.23-1.28a3.55,3.55,0,0,1,2.77,3.21.08.08,0,0,1,0,.09.09.09,0,0,1-.1,0,2.27,2.27,0,0,0-1.82-.19,5.07,5.07,0,0,0-2.76,3C88,104.92,84.77,106,82,106ZM80.35,74.34a.46.46,0,0,1,.23.06c.48.29.87,1,0,2.73-.47.93-1,1.88-1.47,2.8-2.67,5-5.42,10.13-5.3,15.49.11,4.81,2.18,10,7.68,10.35,2.87.16,6.37-1,7.48-3.37.79-1.71,1.75-2.74,2.87-3.08a2.5,2.5,0,0,1,1.81.12A3.32,3.32,0,0,0,91,96.58c-1.3-.26-2.55.79-3.08,1.24-.22.18-.27.22-.34.19a.15.15,0,0,1-.06-.1,2,2,0,0,0-1.74-2.09,2.55,2.55,0,0,0-2.94,1.83c1.93,1,2.83,2.41,2.46,3.91a4,4,0,0,1-3.94,2.77,3.21,3.21,0,0,1-2.6-1.23,2.06,2.06,0,0,1-.17-1.95,5.79,5.79,0,0,1,.75-1.27,4.09,4.09,0,0,0,1-3.3c-.74.81-2.55,2-3.58,1.82a.09.09,0,0,1-.08-.09c0-1.11,1.14-1.83,2.3-2.6s2.51-1.65,3-3.06a4.3,4.3,0,0,0-.13-3.05c-1.11,1.46-3.87,3.65-4.72,3.56a.09.09,0,0,1-.07,0,.11.11,0,0,1,0-.08c.05-.22,1.26-5.42,7.8-11.15C89.28,78,99.55,68,99.55,58.83c.23-6.41-4.3-14.13-12.28-15.95a10.63,10.63,0,0,0-7.91,1.2c-3.1,1.86-5.11,5.81-4.31,8.44a3.6,3.6,0,0,0,2,2.31,3.07,3.07,0,0,0,2.63-.26c-1-.27-2-1-2-3.47a.16.16,0,0,1,.06-.08.07.07,0,0,1,.09,0c.46.34,2.07,1.42,3.53,1a3.19,3.19,0,0,0,1.94-2.11,2.73,2.73,0,0,1-2.73-.81A2,2,0,0,1,80.22,47c.24-.55,1-1.47,3.23-1.53a6.51,6.51,0,0,1,5.73,2.87,8.56,8.56,0,0,1,.63,8.11.08.08,0,0,1-.1.05c-1.91-.31-2.43-1-3.4-2.55-2,3.21,1.06,8.31,1.41,8.89a.09.09,0,0,1,0,.1.1.1,0,0,1-.09,0c-1.8-.2-3.61-2.22-4-3.89v0a2.85,2.85,0,0,0-.36,1.08A10.19,10.19,0,0,0,85,68.27a.12.12,0,0,1,0,.1.16.16,0,0,1-.08.06,3.22,3.22,0,0,1-3-1.87v.07c-.12,1.33-.25,2.85,1.3,6.6a.11.11,0,0,1,0,.12.11.11,0,0,1-.12,0C81.91,72,80.69,72,80,72.5a1.93,1.93,0,0,0-.41,2.56,1.3,1.3,0,0,1,.63-.69A.45.45,0,0,1,80.35,74.34Z"/></g><g id="path302"><path class="cls-3" d="M62.46,36.15c-1.1,1.59-.08,3.11,1.47,2.77,4.49-1,6.72-4.83,11.37-4.88,2.63,0,6.11,1.36,6.11,5.84,0,2.41-2.06,4.81-3.84,4.79a1.93,1.93,0,0,1-2.14-1.85c0-.82.54-1.8,1.46-1.78,1.3,0,1.25,1.05,1,1.32,1.57.61,3.21-5.15-3.37-5a13.93,13.93,0,0,0-6.82,2.69,6.82,6.82,0,0,0-2.54,3.38c-.4,1.83.82,3.81,2.71,2-1,.43-1.74-.07-1.71-.95A1.76,1.76,0,0,1,68,42.67c3,0,2.3,5-1.65,5s-4.71-3.16-3.74-6.13c-1.52.77-1.77,3-1,4.35-1.39-.15-4.09-4-.62-5.93-2-1.3-1.88-4,1.49-3.81Z"/><path class="cls-2" d="M66.27,47.76A4,4,0,0,1,62.9,46.3a5.27,5.27,0,0,1-.46-4.56,2.47,2.47,0,0,0-1,1.42,3.58,3.58,0,0,0,.25,2.68.12.12,0,0,1,0,.1.09.09,0,0,1-.09,0c-.82-.08-2-1.35-2.33-2.79A2.93,2.93,0,0,1,60.79,40a2.41,2.41,0,0,1-1.15-2.58c.29-.92,1.32-1.4,2.82-1.32a.08.08,0,0,1,.08.05.12.12,0,0,1,0,.1,1.84,1.84,0,0,0-.21,2.09,1.45,1.45,0,0,0,1.58.54,15.26,15.26,0,0,0,5-2.42C70.87,35.16,72.69,34,75.29,34a6.67,6.67,0,0,1,4.63,1.7,5.7,5.7,0,0,1,1.58,4.23,5.52,5.52,0,0,1-1.66,3.79,3.27,3.27,0,0,1-2.27,1.09,2,2,0,0,1-2.24-1.95,2.09,2.09,0,0,1,.6-1.47,1.28,1.28,0,0,1,1-.4c.79,0,1.07.39,1.16.62a.89.89,0,0,1,0,.75.78.78,0,0,0,.63-.27A2.58,2.58,0,0,0,79,39.4c-.34-.75-1.36-2-4.46-1.92a13.84,13.84,0,0,0-6.76,2.67,6.54,6.54,0,0,0-2.51,3.32A2.29,2.29,0,0,0,66,45.94a1.35,1.35,0,0,0,1.49-.28,1.24,1.24,0,0,1-1-.16,1.15,1.15,0,0,1-.45-1A1.86,1.86,0,0,1,68,42.58h0a1.86,1.86,0,0,1,2,2,3.41,3.41,0,0,1-3.61,3.2ZM62.6,41.45l.06,0a.1.1,0,0,1,0,.1,5.21,5.21,0,0,0,.36,4.62,3.78,3.78,0,0,0,3.22,1.39h.07a3.23,3.23,0,0,0,3.42-3A1.68,1.68,0,0,0,68,42.77h0a1.67,1.67,0,0,0-1.71,1.73,1,1,0,0,0,.37.85,1.28,1.28,0,0,0,1.21,0,.11.11,0,0,1,.12,0,.09.09,0,0,1,0,.12c-1,1-1.71.8-2,.61a2.49,2.49,0,0,1-.82-2.68A7,7,0,0,1,67.65,40a14,14,0,0,1,6.87-2.71c3.2-.09,4.27,1.24,4.63,2a2.71,2.71,0,0,1-.35,2.85.86.86,0,0,1-1,.28.11.11,0,0,1-.06-.07.11.11,0,0,1,0-.08.68.68,0,0,0,.06-.67c-.09-.22-.34-.49-1-.5a1.11,1.11,0,0,0-.83.34,2,2,0,0,0-.54,1.35c0,1,.82,1.74,2.06,1.75a3.1,3.1,0,0,0,2.13-1,5.37,5.37,0,0,0,1.6-3.66,5.51,5.51,0,0,0-1.52-4.09,6.36,6.36,0,0,0-4.49-1.65c-2.55,0-4.35,1.19-6.25,2.42A15.29,15.29,0,0,1,64,39a1.65,1.65,0,0,1-1.78-.62,2,2,0,0,1,.12-2.16c-1.32,0-2.22.4-2.48,1.2A2.3,2.3,0,0,0,61,39.88a.09.09,0,0,1,0,.08A.08.08,0,0,1,61,40a2.74,2.74,0,0,0-1.58,3.11,3.78,3.78,0,0,0,2,2.61,3.77,3.77,0,0,1-.17-2.65,2.64,2.64,0,0,1,1.32-1.65Z"/></g></g><g id="polygon308"><polygon class="cls-3" points="31.75 68.22 32.36 70.3 30.59 69 28.71 70.24 29.48 68.18 27.73 66.86 29.97 66.89 30.76 64.84 31.38 66.92 33.62 66.97 31.75 68.22"/><path class="cls-2" d="M32.52,70.54l-1.94-1.43-2,1.36.84-2.26-1.93-1.45,2.47,0,.86-2.25.68,2.28,2.47,0-2.06,1.38Zm-1.93-1.65,1.6,1.17-.54-1.88,1.67-1.12-2,0-.56-1.87L30,67l-2,0,1.59,1.19L28.9,70Z"/></g><g id="polygon310"><polygon class="cls-3" points="28.12 78.53 28.72 80.61 26.95 79.31 25.07 80.55 25.84 78.49 24.09 77.17 26.33 77.2 27.12 75.16 27.74 77.23 29.98 77.28 28.12 78.53"/><path class="cls-2" d="M28.88,80.85,27,79.42l-2.06,1.36.84-2.26L23.8,77.08l2.47,0,.86-2.24.68,2.27,2.47.06-2.06,1.37ZM27,79.2l1.6,1.17L28,78.49l1.67-1.12-2-.05-.56-1.87L26.4,77.3l-2,0L26,78.46l-.7,1.85Z"/></g><g id="polygon312"><polygon class="cls-3" points="31.1 91.3 31.7 93.39 29.93 92.08 28.06 93.32 28.83 91.27 27.07 89.95 29.31 89.98 30.1 87.93 30.72 90 32.96 90.06 31.1 91.3"/><path class="cls-2" d="M31.87,93.62,29.93,92.2l-2.06,1.36.84-2.26-1.93-1.45,2.47,0,.86-2.24.68,2.27,2.47.06-2,1.37ZM29.93,92l1.6,1.18L31,91.26l1.67-1.12-2,0-.56-1.88-.71,1.85-2,0,1.58,1.19-.69,1.85Z"/></g><g id="polygon314"><polygon class="cls-3" points="51.15 104.87 51.75 106.95 49.98 105.65 48.11 106.89 48.88 104.83 47.12 103.51 49.37 103.55 50.15 101.5 50.77 103.57 53.01 103.62 51.15 104.87"/><path class="cls-2" d="M51.92,107.19,50,105.76l-2.06,1.36.85-2.26-1.93-1.45,2.46,0,.86-2.24.68,2.27,2.47.06-2.05,1.37ZM50,105.54l1.6,1.17L51,104.83l1.68-1.12-2,0-.56-1.87-.71,1.85-2,0L49,104.8l-.69,1.85Z"/></g><g id="polygon316"><polygon class="cls-3" points="39.07 100.76 39.67 102.84 37.9 101.54 36.03 102.78 36.8 100.72 35.05 99.4 37.29 99.44 38.08 97.39 38.69 99.46 40.94 99.51 39.07 100.76"/><path class="cls-2" d="M39.84,103.08l-1.94-1.43L35.84,103l.85-2.26-1.93-1.45,2.46,0,.87-2.24.67,2.27,2.47.06-2,1.37Zm-1.93-1.65,1.6,1.17L39,100.72l1.68-1.12-2,0-.56-1.87-.71,1.85-2,0,1.58,1.19-.69,1.85Z"/></g><g id="polygon318"><polygon class="cls-3" points="63.25 100.95 63.85 103.03 62.08 101.73 60.21 102.97 60.98 100.91 59.22 99.59 61.47 99.63 62.25 97.58 62.87 99.65 65.11 99.7 63.25 100.95"/><path class="cls-2" d="M64,103.27l-1.94-1.42L60,103.21l.85-2.26L58.94,99.5l2.46,0,.86-2.24.68,2.27,2.47.06-2,1.37Zm-1.94-1.65,1.61,1.18-.55-1.89,1.68-1.12-2,0-.56-1.88-.71,1.85-2,0,1.58,1.19-.69,1.85Z"/></g><g id="polygon320"><polygon class="cls-3" points="71.47 91.61 72.07 93.69 70.3 92.39 68.42 93.63 69.2 91.58 67.44 90.26 69.68 90.29 70.47 88.24 71.09 90.31 73.33 90.37 71.47 91.61"/><path class="cls-2" d="M72.23,93.93,70.3,92.51l-2.06,1.36.84-2.26-1.93-1.45,2.47,0L70.48,88l.68,2.27,2.47.06-2,1.37ZM70.3,92.28l1.6,1.18-.54-1.89L73,90.45l-2,0-.56-1.88-.71,1.85-2,0,1.59,1.19-.7,1.85Z"/></g><g id="polygon322"><polygon class="cls-3" points="74.1 78.54 74.7 80.63 72.93 79.32 71.06 80.56 71.83 78.5 70.07 77.19 72.31 77.22 73.1 75.17 73.72 77.25 75.96 77.3 74.1 78.54"/><path class="cls-2" d="M74.86,80.86l-1.93-1.42L70.87,80.8l.84-2.26-1.93-1.45,2.47,0,.86-2.24.68,2.27,2.47.06-2.05,1.37Zm-1.93-1.65,1.6,1.18L74,78.5l1.67-1.12-2,0-.56-1.88-.71,1.85-2,0,1.59,1.19-.7,1.85Z"/></g><g id="polygon324"><polygon class="cls-3" points="70.11 68.19 70.72 70.27 68.94 68.97 67.07 70.21 67.84 68.15 66.09 66.83 68.33 66.86 69.12 64.81 69.73 66.89 71.98 66.94 70.11 68.19"/><path class="cls-2" d="M70.88,70.51l-1.94-1.43-2.06,1.36.85-2.26L65.8,66.73l2.46,0,.87-2.24.67,2.27,2.47.06-2,1.37ZM69,68.86,70.55,70,70,68.15,71.68,67l-2,0-.56-1.87L68.39,67l-2,0L68,68.12,67.26,70Z"/></g><g id="path333"><path class="cls-7" d="M50.29,90.11c-4.23,0-9.63-2.91-10-10.32a11,11,0,1,0,19.94,0c-.34,7.41-5.74,10.32-10,10.32Z"/></g><g id="polygon335"><polygon class="cls-7" points="50.3 71.06 54.3 68.15 52.78 72.86 56.78 75.77 51.83 75.77 50.3 80.47 48.77 75.77 43.82 75.77 47.83 72.86 46.3 68.15 50.3 71.06"/></g><g id="path338"><path class="cls-2" d="M23.12,101.6l-.17-.08C27,92.17,20.11,84.3,15.54,79.09c-.75-.86-1.46-1.67-2-2.38C8.3,70.11,2.88,59.7,4.84,52.1c.89-3.45,3.23-6,7-7.54l.07.17c-3.67,1.53-6,4-6.84,7.42s-.29,7.79,1.7,12.7A50.4,50.4,0,0,0,13.67,76.6c.56.7,1.27,1.51,2,2.37C20.28,84.21,27.23,92.14,23.12,101.6Z"/></g><g id="path340"><path class="cls-2" d="M76.45,101.75c-4.1-9.46,2.84-17.39,7.44-22.63.75-.86,1.45-1.67,2-2.37,7.17-9.06,10.33-17,9.13-22.88-.76-3.72-3.23-6.75-7.34-9l.09-.17c4.16,2.28,6.66,5.34,7.43,9.12.7,3.45,0,7.52-2.16,12.1a56.83,56.83,0,0,1-7,10.94c-.56.7-1.27,1.51-2,2.37-4.57,5.21-11.46,13.08-7.41,22.43Z"/></g><g id="g342"><g id="path344"><path class="cls-3" d="M45.08,113.41c-4.51.29-7.24-2.62-11.46-2.62-5.8,0-5.51,9.28-1.36,11.44,2.33,1.2,7.19-2.87,13.68-2.28.76.07,1.4-6.5-.86-6.54Zm2.2,7.25-.07-7.31a13.76,13.76,0,0,0,5.68,0l-.08,7.3a12,12,0,0,0-5.53,0ZM55,113.39c4.51.29,7.23-2.62,11.46-2.62,5.79,0,5.51,9.28,1.35,11.44-2.32,1.2-7.18-2.87-13.68-2.28-.75.07-1.39-6.5.87-6.54Z"/><path class="cls-2" d="M33.3,122.54a2.38,2.38,0,0,1-1.08-.23c-2.58-1.34-3.59-5.22-2.91-8a4.29,4.29,0,0,1,4.31-3.61A14.33,14.33,0,0,1,39,112a13.43,13.43,0,0,0,6.08,1.3h0a1.32,1.32,0,0,1,1.15.84,8.34,8.34,0,0,1,0,5.71.33.33,0,0,1-.3.18,20.88,20.88,0,0,0-9,1.57A12.82,12.82,0,0,1,33.3,122.54Zm.32-11.66a4.11,4.11,0,0,0-4.12,3.48c-.67,2.71.3,6.48,2.81,7.78,1,.54,2.61,0,4.61-.71a21,21,0,0,1,9-1.58s.08,0,.12-.1a8.28,8.28,0,0,0,0-5.52,1.16,1.16,0,0,0-1-.73,13.75,13.75,0,0,1-6.16-1.32A14.2,14.2,0,0,0,33.62,110.88ZM66.8,122.52a13,13,0,0,1-3.69-.93,20.82,20.82,0,0,0-9-1.57.33.33,0,0,1-.29-.18,8.33,8.33,0,0,1,0-5.71A1.3,1.3,0,0,1,55,113.3h0A13.62,13.62,0,0,0,61.11,112a14.48,14.48,0,0,1,5.37-1.31,4.29,4.29,0,0,1,4.3,3.61c.68,2.78-.32,6.66-2.9,8A2.38,2.38,0,0,1,66.8,122.52Zm-11.33-2.74a23,23,0,0,1,7.7,1.63c2,.7,3.59,1.25,4.62.71,2.5-1.3,3.47-5.07,2.81-7.78a4.11,4.11,0,0,0-4.12-3.47,14.5,14.5,0,0,0-5.31,1.29A13.7,13.7,0,0,1,55,113.48a1.16,1.16,0,0,0-1,.73,8.29,8.29,0,0,0,0,5.52c0,.07.09.11.12.11A12,12,0,0,1,55.47,119.78Zm-8.19,1s0,0-.05,0a.07.07,0,0,1,0-.07l-.08-7.3a.12.12,0,0,1,0-.08.11.11,0,0,1,.08,0,13.57,13.57,0,0,0,5.64,0,.11.11,0,0,1,.08,0,.11.11,0,0,1,0,.08l-.07,7.3a.08.08,0,0,1,0,.07.08.08,0,0,1-.08,0,11.85,11.85,0,0,0-5.49,0Zm0-7.28.08,7.07a11.89,11.89,0,0,1,5.34,0l.08-7.07A14.14,14.14,0,0,1,47.3,113.47Z"/></g><g id="path346"><path class="cls-2" d="M34.11,119.88c-1.29,0-2.57-1.64-2.69-3a3.15,3.15,0,0,1,.61-2.4,1.77,1.77,0,0,1,1.36-.56h0a1.84,1.84,0,0,1,1.7,1,3,3,0,0,1,0,2.78,1,1,0,0,1-.77.53,1.19,1.19,0,0,1-1.23-.85,1.3,1.3,0,0,1,.5-1.43c.27-.16.83-.33,1.64.38a2.52,2.52,0,0,0-.31-1.32,1.67,1.67,0,0,0-1.54-.85h0a1.61,1.61,0,0,0-1.23.5,3,3,0,0,0-.55,2.26c.1,1.11,1.25,2.78,2.5,2.78h0c2,0,3.2-2,3.2-3.88a3.6,3.6,0,0,0-3.87-3.76h0c-2.23,0-3.91,2.47-4.08,4.8h-.18c.17-2.41,1.92-5,4.26-5h0a3.78,3.78,0,0,1,4.06,4c0,2-1.27,4-3.38,4.07Zm0-3.9a.73.73,0,0,0-.41.12,1.15,1.15,0,0,0-.42,1.22,1,1,0,0,0,1,.71h0a.77.77,0,0,0,.6-.44,2.67,2.67,0,0,0,.3-1.24l-.11.12A1.63,1.63,0,0,0,34.11,116Z"/></g><g id="path348"><path class="cls-2" d="M34.77,119.78l0-.19c1.09-.14,2-.3,3-.46,1.18-.19,2.29-.38,3.51-.5a17.31,17.31,0,0,1,4.74.74l.17,0,0,.18-.16,0a17.06,17.06,0,0,0-4.69-.73c-1.21.11-2.31.3-3.49.5C36.81,119.47,35.86,119.63,34.77,119.78Z"/></g><g id="path350"><path class="cls-3" d="M46.6,113.05c-.18-.07-1.43-.21-1.13.46,1,1.22,1.64,3,.58,6.61-.25.86,1,1,1.32.5.92-1.67.88-6.92-.77-7.57Z"/><path class="cls-2" d="M46.75,121a1.05,1.05,0,0,1-.4-.07.65.65,0,0,1-.39-.84c1.14-3.86.3-5.51-.56-6.52a0,0,0,0,1,0,0,.37.37,0,0,1,0-.46c.27-.29,1.07-.18,1.2-.13h0a2,2,0,0,1,1,1.29,10.19,10.19,0,0,1-.19,6.42A.77.77,0,0,1,46.75,121Zm-1.2-7.54c.89,1.05,1.75,2.75.59,6.69a.45.45,0,0,0,.28.6.72.72,0,0,0,.86-.17,9.84,9.84,0,0,0,.18-6.27,1.85,1.85,0,0,0-.89-1.18h0c-.14,0-.82-.11-1,.08C45.54,113.24,45.48,113.3,45.55,113.46Z"/></g><g id="path352"><path class="cls-2" d="M65.27,119.78c-1.09-.15-2-.31-2.95-.46-1.18-.2-2.29-.39-3.5-.5a17,17,0,0,0-4.68.73l-.16,0,0-.18.17,0a17.25,17.25,0,0,1,4.74-.74c1.22.12,2.33.31,3.51.5.91.16,1.86.32,2.95.46Z"/></g><g id="path354"><path class="cls-3" d="M53.45,113.05c.17-.07,1.43-.21,1.12.46-1,1.22-1.63,3-.58,6.61.25.86-1,1-1.31.5-.92-1.67-.89-6.92.77-7.57Z"/><path class="cls-2" d="M53.29,121a.76.76,0,0,1-.69-.33,10,10,0,0,1-.19-6.42,2,2,0,0,1,1-1.29h0c.14,0,.93-.16,1.21.13a.37.37,0,0,1,0,.46l0,0c-.85,1-1.69,2.66-.56,6.52a.65.65,0,0,1-.38.84A1.14,1.14,0,0,1,53.29,121Zm.19-7.87a1.89,1.89,0,0,0-.9,1.18,9.91,9.91,0,0,0,.18,6.27.72.72,0,0,0,.86.17.45.45,0,0,0,.28-.6c-1.15-3.94-.29-5.64.59-6.69.07-.16,0-.22,0-.25-.18-.19-.86-.13-1-.08Z"/></g><g id="line356"><rect class="cls-2" x="47.64" y="114.38" width="4.92" height="0.19"/></g><g id="line358"><polygon class="cls-2" points="47.64 119.65 47.64 119.46 52.49 119.45 52.49 119.64 47.64 119.65"/></g><g id="line360"><rect class="cls-2" x="47.68" y="115.11" width="4.66" height="0.19"/></g><g id="line362"><polygon class="cls-2" points="52.11 116.42 47.83 116.41 47.83 116.22 52.11 116.23 52.11 116.42"/></g><g id="line364"><polygon class="cls-2" points="52.2 117.6 47.84 117.59 47.84 117.41 52.2 117.42 52.2 117.6"/></g><g id="line366"><polygon class="cls-2" points="52.26 118.88 47.64 118.87 47.64 118.69 52.26 118.7 52.26 118.88"/></g><g id="path368"><path class="cls-2" d="M66,119.84h0c-2.12,0-3.38-2.08-3.38-4.07a3.78,3.78,0,0,1,4.06-4h0c2.34,0,4.09,2.57,4.26,5l-.19,0c-.16-2.33-1.84-4.81-4.07-4.81h0a3.61,3.61,0,0,0-3.88,3.76c0,1.9,1.2,3.87,3.2,3.88h0c1.24,0,2.4-1.68,2.5-2.79a2.93,2.93,0,0,0-.56-2.25,1.55,1.55,0,0,0-1.22-.51h0a1.67,1.67,0,0,0-1.54.86,2.6,2.6,0,0,0-.32,1.31c.82-.71,1.38-.54,1.65-.37a1.28,1.28,0,0,1,.49,1.42,1.17,1.17,0,0,1-1.22.85.91.91,0,0,1-.77-.53,3.05,3.05,0,0,1,0-2.78,1.86,1.86,0,0,1,1.71-.94h0a1.77,1.77,0,0,1,1.36.56,3.13,3.13,0,0,1,.61,2.4C68.57,118.2,67.28,119.84,66,119.84Zm-1.14-3.53a2.71,2.71,0,0,0,.31,1.25.76.76,0,0,0,.6.43h0a1,1,0,0,0,1-.71,1.11,1.11,0,0,0-.41-1.21c-.39-.25-.9-.11-1.43.37Z"/></g></g></g></symbol></defs><g id="Layer_2" data-name="Layer 2"><g id="Layer_1-2" data-name="Layer 1"><use width="99.74" height="122.54" xlink:href="#New_Symbol_1"/></g></g></svg>